<?xml version="1.0" encoding="UTF-8" standalone="no"?>
<!DOCTYPE svg PUBLIC "-//W3C//DTD SVG 1.1//EN"
 "http://www.w3.org/Graphics/SVG/1.1/DTD/svg11.dtd">
<!-- Generated by graphviz version 2.47.3 (20210619.1520)
 -->
<!-- Title: dependencies Pages: 1 -->
<svg width="1712pt" height="247pt"
 viewBox="0.00 0.00 1712.00 246.80" xmlns="http://www.w3.org/2000/svg" xmlns:xlink="http://www.w3.org/1999/xlink">
<g id="graph0" class="graph" transform="scale(1 1) rotate(0) translate(4 242.8)">
<title>dependencies</title>
<polygon fill="white" stroke="transparent" points="-4,4 -4,-242.8 1708,-242.8 1708,4 -4,4"/>
<text text-anchor="middle" x="852" y="-8.2" font-family="sans-serif" font-size="14.00">dependencies</text>
<g id="clust1" class="cluster">
<title>cluster_AppModule</title>
<polygon fill="none" stroke="black" stroke-dasharray="1,5" points="8,-32.8 8,-230.8 1696,-230.8 1696,-32.8 8,-32.8"/>
</g>
<g id="clust2" class="cluster">
<title>cluster_AppModule_declarations</title>
<polygon fill="none" stroke="black" points="1433,-40.8 1433,-92.8 1688,-92.8 1688,-40.8 1433,-40.8"/>
</g>
<g id="clust5" class="cluster">
<title>cluster_AppModule_imports</title>
<polygon fill="none" stroke="black" points="16,-40.8 16,-92.8 1425,-92.8 1425,-40.8 16,-40.8"/>
</g>
<g id="clust7" class="cluster">
<title>cluster_AppModule_bootstrap</title>
<polygon fill="none" stroke="black" points="777,-170.8 777,-222.8 901,-222.8 901,-170.8 777,-170.8"/>
</g>
<!-- AppComponent -->
<g id="node1" class="node">
<title>AppComponent</title>
<polygon fill="#ffffb3" stroke="black" points="1679.94,-84.8 1574.06,-84.8 1574.06,-48.8 1679.94,-48.8 1679.94,-84.8"/>
<text text-anchor="middle" x="1627" y="-62.6" font-family="Times,serif" font-size="14.00">AppComponent</text>
</g>
<!-- AppModule -->
<g id="node3" class="node">
<title>AppModule</title>
<polygon fill="#8dd3c7" stroke="black" points="880.66,-149.8 877.66,-153.8 856.66,-153.8 853.66,-149.8 797.34,-149.8 797.34,-113.8 880.66,-113.8 880.66,-149.8"/>
<text text-anchor="middle" x="839" y="-127.6" font-family="Times,serif" font-size="14.00">AppModule</text>
</g>
<!-- AppComponent&#45;&gt;AppModule -->
<g id="edge1" class="edge">
<title>AppComponent&#45;&gt;AppModule</title>
<path fill="none" stroke="black" d="M1627,-85.05C1627,-107.82 1627,-143.8 1627,-143.8 1627,-143.8 890.81,-143.8 890.81,-143.8"/>
<polygon fill="black" stroke="black" points="890.81,-140.3 880.81,-143.8 890.81,-147.3 890.81,-140.3"/>
</g>
<!-- HomeComponent -->
<g id="node2" class="node">
<title>HomeComponent</title>
<polygon fill="#ffffb3" stroke="black" points="1556.55,-84.8 1441.45,-84.8 1441.45,-48.8 1556.55,-48.8 1556.55,-84.8"/>
<text text-anchor="middle" x="1499" y="-62.6" font-family="Times,serif" font-size="14.00">HomeComponent</text>
</g>
<!-- HomeComponent&#45;&gt;AppModule -->
<g id="edge2" class="edge">
<title>HomeComponent&#45;&gt;AppModule</title>
<path fill="none" stroke="black" d="M1499,-85.08C1499,-106.12 1499,-137.8 1499,-137.8 1499,-137.8 890.79,-137.8 890.79,-137.8"/>
<polygon fill="black" stroke="black" points="890.79,-134.3 880.79,-137.8 890.79,-141.3 890.79,-134.3"/>
</g>
<!-- AppComponent  -->
<g id="node14" class="node">
<title>AppComponent </title>
<polygon fill="#80b1d3" stroke="black" points="893.44,-214.8 784.56,-214.8 784.56,-178.8 893.44,-178.8 893.44,-214.8"/>
<text text-anchor="middle" x="839" y="-192.6" font-family="Times,serif" font-size="14.00">AppComponent </text>
</g>
<!-- AppModule&#45;&gt;AppComponent  -->
<g id="edge13" class="edge">
<title>AppModule&#45;&gt;AppComponent </title>
<path fill="none" stroke="black" stroke-dasharray="1,5" d="M839,-149.91C839,-149.91 839,-168.79 839,-168.79"/>
<polygon fill="black" stroke="black" points="835.5,-168.79 839,-178.79 842.5,-168.79 835.5,-168.79"/>
</g>
<!-- BrowserModule -->
<g id="node4" class="node">
<title>BrowserModule</title>
<polygon fill="#8dd3c7" stroke="black" points="1417.47,-84.8 1414.47,-88.8 1393.47,-88.8 1390.47,-84.8 1310.53,-84.8 1310.53,-48.8 1417.47,-48.8 1417.47,-84.8"/>
<text text-anchor="middle" x="1364" y="-62.6" font-family="Times,serif" font-size="14.00">BrowserModule</text>
</g>
<!-- BrowserModule&#45;&gt;AppModule -->
<g id="edge3" class="edge">
<title>BrowserModule&#45;&gt;AppModule</title>
<path fill="none" stroke="black" d="M1364,-84.91C1364,-104.14 1364,-131.8 1364,-131.8 1364,-131.8 891.08,-131.8 891.08,-131.8"/>
<polygon fill="black" stroke="black" points="891.08,-128.3 881.08,-131.8 891.08,-135.3 891.08,-128.3"/>
</g>
<!-- AppRoutingModule -->
<g id="node5" class="node">
<title>AppRoutingModule</title>
<polygon fill="#8dd3c7" stroke="black" points="1292.27,-84.8 1289.27,-88.8 1268.27,-88.8 1265.27,-84.8 1163.73,-84.8 1163.73,-48.8 1292.27,-48.8 1292.27,-84.8"/>
<text text-anchor="middle" x="1228" y="-62.6" font-family="Times,serif" font-size="14.00">AppRoutingModule</text>
</g>
<!-- AppRoutingModule&#45;&gt;AppModule -->
<g id="edge4" class="edge">
<title>AppRoutingModule&#45;&gt;AppModule</title>
<path fill="none" stroke="black" d="M1228,-84.82C1228,-102.17 1228,-125.8 1228,-125.8 1228,-125.8 891,-125.8 891,-125.8"/>
<polygon fill="black" stroke="black" points="891,-122.3 881,-125.8 891,-129.3 891,-122.3"/>
</g>
<!-- HttpClientModule -->
<g id="node6" class="node">
<title>HttpClientModule</title>
<polygon fill="#8dd3c7" stroke="black" points="1145.16,-84.8 1142.16,-88.8 1121.16,-88.8 1118.16,-84.8 1026.84,-84.8 1026.84,-48.8 1145.16,-48.8 1145.16,-84.8"/>
<text text-anchor="middle" x="1086" y="-62.6" font-family="Times,serif" font-size="14.00">HttpClientModule</text>
</g>
<!-- HttpClientModule&#45;&gt;AppModule -->
<g id="edge5" class="edge">
<title>HttpClientModule&#45;&gt;AppModule</title>
<path fill="none" stroke="black" d="M1086,-85.04C1086,-100.37 1086,-119.8 1086,-119.8 1086,-119.8 890.9,-119.8 890.9,-119.8"/>
<polygon fill="black" stroke="black" points="890.9,-116.3 880.9,-119.8 890.9,-123.3 890.9,-116.3"/>
</g>
<!-- BrowserAnimationsModule -->
<g id="node7" class="node">
<title>BrowserAnimationsModule</title>
<polygon fill="#8dd3c7" stroke="black" points="1009.3,-84.8 1006.3,-88.8 985.3,-88.8 982.3,-84.8 836.7,-84.8 836.7,-48.8 1009.3,-48.8 1009.3,-84.8"/>
<text text-anchor="middle" x="923" y="-62.6" font-family="Times,serif" font-size="14.00">BrowserAnimationsModule</text>
</g>
<!-- BrowserAnimationsModule&#45;&gt;AppModule -->
<g id="edge6" class="edge">
<title>BrowserAnimationsModule&#45;&gt;AppModule</title>
<path fill="none" stroke="black" d="M858.84,-84.91C858.84,-84.91 858.84,-103.79 858.84,-103.79"/>
<polygon fill="black" stroke="black" points="855.34,-103.79 858.84,-113.79 862.34,-103.79 855.34,-103.79"/>
</g>
<!-- MatToolbarModule -->
<g id="node8" class="node">
<title>MatToolbarModule</title>
<polygon fill="#8dd3c7" stroke="black" points="819.42,-84.8 816.42,-88.8 795.42,-88.8 792.42,-84.8 692.58,-84.8 692.58,-48.8 819.42,-48.8 819.42,-84.8"/>
<text text-anchor="middle" x="756" y="-62.6" font-family="Times,serif" font-size="14.00">MatToolbarModule</text>
</g>
<!-- MatToolbarModule&#45;&gt;AppModule -->
<g id="edge7" class="edge">
<title>MatToolbarModule&#45;&gt;AppModule</title>
<path fill="none" stroke="black" d="M808.19,-84.91C808.19,-84.91 808.19,-103.79 808.19,-103.79"/>
<polygon fill="black" stroke="black" points="804.69,-103.79 808.19,-113.79 811.69,-103.79 804.69,-103.79"/>
</g>
<!-- MatSidenavModule -->
<g id="node9" class="node">
<title>MatSidenavModule</title>
<polygon fill="#8dd3c7" stroke="black" points="674.7,-84.8 671.7,-88.8 650.7,-88.8 647.7,-84.8 547.3,-84.8 547.3,-48.8 674.7,-48.8 674.7,-84.8"/>
<text text-anchor="middle" x="611" y="-62.6" font-family="Times,serif" font-size="14.00">MatSidenavModule</text>
</g>
<!-- MatSidenavModule&#45;&gt;AppModule -->
<g id="edge8" class="edge">
<title>MatSidenavModule&#45;&gt;AppModule</title>
<path fill="none" stroke="black" d="M611,-85.04C611,-100.37 611,-119.8 611,-119.8 611,-119.8 787.18,-119.8 787.18,-119.8"/>
<polygon fill="black" stroke="black" points="787.18,-123.3 797.18,-119.8 787.18,-116.3 787.18,-123.3"/>
</g>
<!-- MatButtonModule -->
<g id="node10" class="node">
<title>MatButtonModule</title>
<polygon fill="#8dd3c7" stroke="black" points="529.22,-84.8 526.22,-88.8 505.22,-88.8 502.22,-84.8 408.78,-84.8 408.78,-48.8 529.22,-48.8 529.22,-84.8"/>
<text text-anchor="middle" x="469" y="-62.6" font-family="Times,serif" font-size="14.00">MatButtonModule</text>
</g>
<!-- MatButtonModule&#45;&gt;AppModule -->
<g id="edge9" class="edge">
<title>MatButtonModule&#45;&gt;AppModule</title>
<path fill="none" stroke="black" d="M469,-84.82C469,-102.17 469,-125.8 469,-125.8 469,-125.8 787.28,-125.8 787.28,-125.8"/>
<polygon fill="black" stroke="black" points="787.28,-129.3 797.28,-125.8 787.28,-122.3 787.28,-129.3"/>
</g>
<!-- MatIconModule -->
<g id="node11" class="node">
<title>MatIconModule</title>
<polygon fill="#8dd3c7" stroke="black" points="390.47,-84.8 387.47,-88.8 366.47,-88.8 363.47,-84.8 283.53,-84.8 283.53,-48.8 390.47,-48.8 390.47,-84.8"/>
<text text-anchor="middle" x="337" y="-62.6" font-family="Times,serif" font-size="14.00">MatIconModule</text>
</g>
<!-- MatIconModule&#45;&gt;AppModule -->
<g id="edge10" class="edge">
<title>MatIconModule&#45;&gt;AppModule</title>
<path fill="none" stroke="black" d="M337,-84.91C337,-104.14 337,-131.8 337,-131.8 337,-131.8 787.06,-131.8 787.06,-131.8"/>
<polygon fill="black" stroke="black" points="787.06,-135.3 797.06,-131.8 787.06,-128.3 787.06,-135.3"/>
</g>
<!-- MatDividerModule -->
<g id="node12" class="node">
<title>MatDividerModule</title>
<polygon fill="#8dd3c7" stroke="black" points="265.36,-84.8 262.36,-88.8 241.36,-88.8 238.36,-84.8 140.64,-84.8 140.64,-48.8 265.36,-48.8 265.36,-84.8"/>
<text text-anchor="middle" x="203" y="-62.6" font-family="Times,serif" font-size="14.00">MatDividerModule</text>
</g>
<!-- MatDividerModule&#45;&gt;AppModule -->
<g id="edge11" class="edge">
<title>MatDividerModule&#45;&gt;AppModule</title>
<path fill="none" stroke="black" d="M203,-85.08C203,-106.12 203,-137.8 203,-137.8 203,-137.8 787.27,-137.8 787.27,-137.8"/>
<polygon fill="black" stroke="black" points="787.27,-141.3 797.27,-137.8 787.27,-134.3 787.27,-141.3"/>
</g>
<!-- SharedModule -->
<g id="node13" class="node">
<title>SharedModule</title>
<polygon fill="#8dd3c7" stroke="black" points="122.42,-84.8 119.42,-88.8 98.42,-88.8 95.42,-84.8 23.58,-84.8 23.58,-48.8 122.42,-48.8 122.42,-84.8"/>
<text text-anchor="middle" x="73" y="-62.6" font-family="Times,serif" font-size="14.00">SharedModule</text>
</g>
<!-- SharedModule&#45;&gt;AppModule -->
<g id="edge12" class="edge">
<title>SharedModule&#45;&gt;AppModule</title>
<path fill="none" stroke="black" d="M73,-85.05C73,-107.82 73,-143.8 73,-143.8 73,-143.8 787.27,-143.8 787.27,-143.8"/>
<polygon fill="black" stroke="black" points="787.27,-147.3 797.27,-143.8 787.27,-140.3 787.27,-147.3"/>
</g>
</g>
</svg>
