<?xml version="1.0" encoding="UTF-8" standalone="no"?>
<!DOCTYPE svg PUBLIC "-//W3C//DTD SVG 1.1//EN"
 "http://www.w3.org/Graphics/SVG/1.1/DTD/svg11.dtd">
<!-- Generated by graphviz version 2.47.3 (20210619.1520)
 -->
<!-- Title: dependencies Pages: 1 -->
<svg width="1517pt" height="247pt"
 viewBox="0.00 0.00 1517.00 246.80" xmlns="http://www.w3.org/2000/svg" xmlns:xlink="http://www.w3.org/1999/xlink">
<g id="graph0" class="graph" transform="scale(1 1) rotate(0) translate(4 242.8)">
<title>dependencies</title>
<polygon fill="white" stroke="transparent" points="-4,4 -4,-242.8 1513,-242.8 1513,4 -4,4"/>
<text text-anchor="middle" x="754.5" y="-8.2" font-family="sans-serif" font-size="14.00">dependencies</text>
<g id="clust1" class="cluster">
<title>cluster_ClienteModule</title>
<polygon fill="none" stroke="black" stroke-dasharray="1,5" points="8,-32.8 8,-230.8 1501,-230.8 1501,-32.8 8,-32.8"/>
</g>
<g id="clust2" class="cluster">
<title>cluster_ClienteModule_declarations</title>
<polygon fill="none" stroke="black" points="1163,-40.8 1163,-92.8 1493,-92.8 1493,-40.8 1163,-40.8"/>
</g>
<g id="clust5" class="cluster">
<title>cluster_ClienteModule_imports</title>
<polygon fill="none" stroke="black" points="16,-40.8 16,-92.8 1155,-92.8 1155,-40.8 16,-40.8"/>
</g>
<g id="clust6" class="cluster">
<title>cluster_ClienteModule_exports</title>
<polygon fill="none" stroke="black" points="577,-170.8 577,-222.8 914,-222.8 914,-170.8 577,-170.8"/>
</g>
<!-- ClienteFormComponent -->
<g id="node1" class="node">
<title>ClienteFormComponent</title>
<polygon fill="#ffffb3" stroke="black" points="1485.1,-84.8 1332.9,-84.8 1332.9,-48.8 1485.1,-48.8 1485.1,-84.8"/>
<text text-anchor="middle" x="1409" y="-62.6" font-family="Times,serif" font-size="14.00">ClienteFormComponent</text>
</g>
<!-- ClienteModule -->
<g id="node3" class="node">
<title>ClienteModule</title>
<polygon fill="#8dd3c7" stroke="black" points="796.99,-149.8 793.99,-153.8 772.99,-153.8 769.99,-149.8 697.01,-149.8 697.01,-113.8 796.99,-113.8 796.99,-149.8"/>
<text text-anchor="middle" x="747" y="-127.6" font-family="Times,serif" font-size="14.00">ClienteModule</text>
</g>
<!-- ClienteFormComponent&#45;&gt;ClienteModule -->
<g id="edge1" class="edge">
<title>ClienteFormComponent&#45;&gt;ClienteModule</title>
<path fill="none" stroke="black" d="M1409,-84.81C1409,-107.29 1409,-142.8 1409,-142.8 1409,-142.8 807.03,-142.8 807.03,-142.8"/>
<polygon fill="black" stroke="black" points="807.03,-139.3 797.03,-142.8 807.03,-146.3 807.03,-139.3"/>
</g>
<!-- ClienteListComponent -->
<g id="node2" class="node">
<title>ClienteListComponent</title>
<polygon fill="#ffffb3" stroke="black" points="1314.55,-84.8 1171.45,-84.8 1171.45,-48.8 1314.55,-48.8 1314.55,-84.8"/>
<text text-anchor="middle" x="1243" y="-62.6" font-family="Times,serif" font-size="14.00">ClienteListComponent</text>
</g>
<!-- ClienteListComponent&#45;&gt;ClienteModule -->
<g id="edge2" class="edge">
<title>ClienteListComponent&#45;&gt;ClienteModule</title>
<path fill="none" stroke="black" d="M1243,-84.93C1243,-105.37 1243,-135.8 1243,-135.8 1243,-135.8 807.29,-135.8 807.29,-135.8"/>
<polygon fill="black" stroke="black" points="807.29,-132.3 797.29,-135.8 807.29,-139.3 807.29,-132.3"/>
</g>
<!-- ClienteListComponent  -->
<g id="node12" class="node">
<title>ClienteListComponent </title>
<polygon fill="#fb8072" stroke="black" points="905.55,-214.8 758.45,-214.8 758.45,-178.8 905.55,-178.8 905.55,-214.8"/>
<text text-anchor="middle" x="832" y="-192.6" font-family="Times,serif" font-size="14.00">ClienteListComponent </text>
</g>
<!-- ClienteModule&#45;&gt;ClienteListComponent  -->
<g id="edge11" class="edge">
<title>ClienteModule&#45;&gt;ClienteListComponent </title>
<path fill="none" stroke="black" stroke-dasharray="5,2" d="M777.73,-149.91C777.73,-149.91 777.73,-168.79 777.73,-168.79"/>
<polygon fill="black" stroke="black" points="774.23,-168.79 777.73,-178.79 781.23,-168.79 774.23,-168.79"/>
</g>
<!-- ClienteFormComponent  -->
<g id="node13" class="node">
<title>ClienteFormComponent </title>
<polygon fill="#fb8072" stroke="black" points="740.6,-214.8 585.4,-214.8 585.4,-178.8 740.6,-178.8 740.6,-214.8"/>
<text text-anchor="middle" x="663" y="-192.6" font-family="Times,serif" font-size="14.00">ClienteFormComponent </text>
</g>
<!-- ClienteModule&#45;&gt;ClienteFormComponent  -->
<g id="edge12" class="edge">
<title>ClienteModule&#45;&gt;ClienteFormComponent </title>
<path fill="none" stroke="black" stroke-dasharray="5,2" d="M718.9,-149.91C718.9,-149.91 718.9,-168.79 718.9,-168.79"/>
<polygon fill="black" stroke="black" points="715.4,-168.79 718.9,-178.79 722.4,-168.79 715.4,-168.79"/>
</g>
<!-- CommonModule -->
<g id="node4" class="node">
<title>CommonModule</title>
<polygon fill="#8dd3c7" stroke="black" points="1146.67,-84.8 1143.67,-88.8 1122.67,-88.8 1119.67,-84.8 1035.33,-84.8 1035.33,-48.8 1146.67,-48.8 1146.67,-84.8"/>
<text text-anchor="middle" x="1091" y="-62.6" font-family="Times,serif" font-size="14.00">CommonModule</text>
</g>
<!-- CommonModule&#45;&gt;ClienteModule -->
<g id="edge3" class="edge">
<title>CommonModule&#45;&gt;ClienteModule</title>
<path fill="none" stroke="black" d="M1091,-85.07C1091,-103.36 1091,-128.8 1091,-128.8 1091,-128.8 807.02,-128.8 807.02,-128.8"/>
<polygon fill="black" stroke="black" points="807.02,-125.3 797.02,-128.8 807.02,-132.3 807.02,-125.3"/>
</g>
<!-- MatCardModule -->
<g id="node5" class="node">
<title>MatCardModule</title>
<polygon fill="#8dd3c7" stroke="black" points="1017.81,-84.8 1014.81,-88.8 993.81,-88.8 990.81,-84.8 908.19,-84.8 908.19,-48.8 1017.81,-48.8 1017.81,-84.8"/>
<text text-anchor="middle" x="963" y="-62.6" font-family="Times,serif" font-size="14.00">MatCardModule</text>
</g>
<!-- MatCardModule&#45;&gt;ClienteModule -->
<g id="edge4" class="edge">
<title>MatCardModule&#45;&gt;ClienteModule</title>
<path fill="none" stroke="black" d="M963,-84.81C963,-100.85 963,-121.8 963,-121.8 963,-121.8 807.1,-121.8 807.1,-121.8"/>
<polygon fill="black" stroke="black" points="807.1,-118.3 797.1,-121.8 807.1,-125.3 807.1,-118.3"/>
</g>
<!-- MatButtonModule -->
<g id="node6" class="node">
<title>MatButtonModule</title>
<polygon fill="#8dd3c7" stroke="black" points="890.22,-84.8 887.22,-88.8 866.22,-88.8 863.22,-84.8 769.78,-84.8 769.78,-48.8 890.22,-48.8 890.22,-84.8"/>
<text text-anchor="middle" x="830" y="-62.6" font-family="Times,serif" font-size="14.00">MatButtonModule</text>
</g>
<!-- MatButtonModule&#45;&gt;ClienteModule -->
<g id="edge5" class="edge">
<title>MatButtonModule&#45;&gt;ClienteModule</title>
<path fill="none" stroke="black" d="M783.44,-84.91C783.44,-84.91 783.44,-103.79 783.44,-103.79"/>
<polygon fill="black" stroke="black" points="779.94,-103.79 783.44,-113.79 786.94,-103.79 779.94,-103.79"/>
</g>
<!-- MatProgressSpinnerModule -->
<g id="node7" class="node">
<title>MatProgressSpinnerModule</title>
<polygon fill="#8dd3c7" stroke="black" points="751.86,-84.8 748.86,-88.8 727.86,-88.8 724.86,-84.8 578.14,-84.8 578.14,-48.8 751.86,-48.8 751.86,-84.8"/>
<text text-anchor="middle" x="665" y="-62.6" font-family="Times,serif" font-size="14.00">MatProgressSpinnerModule</text>
</g>
<!-- MatProgressSpinnerModule&#45;&gt;ClienteModule -->
<g id="edge6" class="edge">
<title>MatProgressSpinnerModule&#45;&gt;ClienteModule</title>
<path fill="none" stroke="black" d="M724.47,-84.91C724.47,-84.91 724.47,-103.79 724.47,-103.79"/>
<polygon fill="black" stroke="black" points="720.97,-103.79 724.47,-113.79 727.97,-103.79 720.97,-103.79"/>
</g>
<!-- ClienteRoutingModule -->
<g id="node8" class="node">
<title>ClienteRoutingModule</title>
<polygon fill="#8dd3c7" stroke="black" points="560.61,-84.8 557.61,-88.8 536.61,-88.8 533.61,-84.8 415.39,-84.8 415.39,-48.8 560.61,-48.8 560.61,-84.8"/>
<text text-anchor="middle" x="488" y="-62.6" font-family="Times,serif" font-size="14.00">ClienteRoutingModule</text>
</g>
<!-- ClienteRoutingModule&#45;&gt;ClienteModule -->
<g id="edge7" class="edge">
<title>ClienteRoutingModule&#45;&gt;ClienteModule</title>
<path fill="none" stroke="black" d="M488,-84.81C488,-100.85 488,-121.8 488,-121.8 488,-121.8 686.76,-121.8 686.76,-121.8"/>
<polygon fill="black" stroke="black" points="686.76,-125.3 696.76,-121.8 686.76,-118.3 686.76,-125.3"/>
</g>
<!-- FormsModule -->
<g id="node9" class="node">
<title>FormsModule</title>
<polygon fill="#8dd3c7" stroke="black" points="397.83,-84.8 394.83,-88.8 373.83,-88.8 370.83,-84.8 302.17,-84.8 302.17,-48.8 397.83,-48.8 397.83,-84.8"/>
<text text-anchor="middle" x="350" y="-62.6" font-family="Times,serif" font-size="14.00">FormsModule</text>
</g>
<!-- FormsModule&#45;&gt;ClienteModule -->
<g id="edge8" class="edge">
<title>FormsModule&#45;&gt;ClienteModule</title>
<path fill="none" stroke="black" d="M350,-85.07C350,-103.36 350,-128.8 350,-128.8 350,-128.8 686.72,-128.8 686.72,-128.8"/>
<polygon fill="black" stroke="black" points="686.72,-132.3 696.72,-128.8 686.72,-125.3 686.72,-132.3"/>
</g>
<!-- ReactiveFormsModule -->
<g id="node10" class="node">
<title>ReactiveFormsModule</title>
<polygon fill="#8dd3c7" stroke="black" points="284.3,-84.8 281.3,-88.8 260.3,-88.8 257.3,-84.8 139.7,-84.8 139.7,-48.8 284.3,-48.8 284.3,-84.8"/>
<text text-anchor="middle" x="212" y="-62.6" font-family="Times,serif" font-size="14.00">ReactiveFormsModule</text>
</g>
<!-- ReactiveFormsModule&#45;&gt;ClienteModule -->
<g id="edge9" class="edge">
<title>ReactiveFormsModule&#45;&gt;ClienteModule</title>
<path fill="none" stroke="black" d="M212,-84.93C212,-105.37 212,-135.8 212,-135.8 212,-135.8 686.67,-135.8 686.67,-135.8"/>
<polygon fill="black" stroke="black" points="686.67,-139.3 696.67,-135.8 686.67,-132.3 686.67,-139.3"/>
</g>
<!-- SharedModule -->
<g id="node11" class="node">
<title>SharedModule</title>
<polygon fill="#8dd3c7" stroke="black" points="122.42,-84.8 119.42,-88.8 98.42,-88.8 95.42,-84.8 23.58,-84.8 23.58,-48.8 122.42,-48.8 122.42,-84.8"/>
<text text-anchor="middle" x="73" y="-62.6" font-family="Times,serif" font-size="14.00">SharedModule</text>
</g>
<!-- SharedModule&#45;&gt;ClienteModule -->
<g id="edge10" class="edge">
<title>SharedModule&#45;&gt;ClienteModule</title>
<path fill="none" stroke="black" d="M73,-84.81C73,-107.29 73,-142.8 73,-142.8 73,-142.8 686.89,-142.8 686.89,-142.8"/>
<polygon fill="black" stroke="black" points="686.89,-146.3 696.89,-142.8 686.89,-139.3 686.89,-146.3"/>
</g>
</g>
</svg>
