<?xml version="1.0" encoding="UTF-8" standalone="no"?>
<!DOCTYPE svg PUBLIC "-//W3C//DTD SVG 1.1//EN"
 "http://www.w3.org/Graphics/SVG/1.1/DTD/svg11.dtd">
<!-- Generated by graphviz version 2.47.3 (20210619.1520)
 -->
<!-- Title: dependencies Pages: 1 -->
<svg width="5097pt" height="318pt"
 viewBox="0.00 0.00 5097.00 317.80" xmlns="http://www.w3.org/2000/svg" xmlns:xlink="http://www.w3.org/1999/xlink">
<g id="graph0" class="graph" transform="scale(1 1) rotate(0) translate(4 313.8)">
<title>dependencies</title>
<polygon fill="white" stroke="transparent" points="-4,4 -4,-313.8 5093,-313.8 5093,4 -4,4"/>
<text text-anchor="middle" x="2544.5" y="-8.2" font-family="sans-serif" font-size="14.00">dependencies</text>
<g id="clust1" class="cluster">
<title>cluster_AppModule</title>
<polygon fill="none" stroke="black" stroke-dasharray="1,5" points="2263,-32.8 2263,-301.8 3834,-301.8 3834,-32.8 2263,-32.8"/>
</g>
<g id="clust2" class="cluster">
<title>cluster_AppModule_declarations</title>
<polygon fill="none" stroke="black" points="3571,-108.8 3571,-160.8 3826,-160.8 3826,-108.8 3571,-108.8"/>
</g>
<g id="clust5" class="cluster">
<title>cluster_AppModule_imports</title>
<polygon fill="none" stroke="black" points="2271,-40.8 2271,-160.8 3563,-160.8 3563,-40.8 2271,-40.8"/>
</g>
<g id="clust7" class="cluster">
<title>cluster_AppModule_bootstrap</title>
<polygon fill="none" stroke="black" points="2915,-241.8 2915,-293.8 3039,-293.8 3039,-241.8 2915,-241.8"/>
</g>
<g id="clust9" class="cluster">
<title>cluster_ClienteModule</title>
<polygon fill="none" stroke="black" stroke-dasharray="1,5" points="3842,-32.8 3842,-233.8 5081,-233.8 5081,-32.8 3842,-32.8"/>
</g>
<g id="clust10" class="cluster">
<title>cluster_ClienteModule_declarations</title>
<polygon fill="none" stroke="black" points="4743,-40.8 4743,-92.8 5073,-92.8 5073,-40.8 4743,-40.8"/>
</g>
<g id="clust13" class="cluster">
<title>cluster_ClienteModule_imports</title>
<polygon fill="none" stroke="black" points="3850,-40.8 3850,-92.8 4735,-92.8 4735,-40.8 3850,-40.8"/>
</g>
<g id="clust14" class="cluster">
<title>cluster_ClienteModule_exports</title>
<polygon fill="none" stroke="black" points="4165,-173.8 4165,-225.8 4502,-225.8 4502,-173.8 4165,-173.8"/>
</g>
<g id="clust17" class="cluster">
<title>cluster_SharedModule</title>
<polygon fill="none" stroke="black" stroke-dasharray="1,5" points="8,-32.8 8,-100.8 2255,-100.8 2255,-32.8 8,-32.8"/>
</g>
<g id="clust18" class="cluster">
<title>cluster_SharedModule_declarations</title>
<polygon fill="none" stroke="black" points="1699,-40.8 1699,-92.8 2247,-92.8 2247,-40.8 1699,-40.8"/>
</g>
<g id="clust23" class="cluster">
<title>cluster_SharedModule_imports</title>
<polygon fill="none" stroke="black" points="718,-40.8 718,-92.8 1691,-92.8 1691,-40.8 718,-40.8"/>
</g>
<g id="clust24" class="cluster">
<title>cluster_SharedModule_exports</title>
<polygon fill="none" stroke="black" points="16,-40.8 16,-92.8 710,-92.8 710,-40.8 16,-40.8"/>
</g>
<!-- AppComponent -->
<g id="node1" class="node">
<title>AppComponent</title>
<polygon fill="#ffffb3" stroke="black" points="3684.94,-152.8 3579.06,-152.8 3579.06,-116.8 3684.94,-116.8 3684.94,-152.8"/>
<text text-anchor="middle" x="3632" y="-130.6" font-family="Times,serif" font-size="14.00">AppComponent</text>
</g>
<!-- AppModule -->
<g id="node3" class="node">
<title>AppModule</title>
<polygon fill="#8dd3c7" stroke="black" points="3018.66,-217.8 3015.66,-221.8 2994.66,-221.8 2991.66,-217.8 2935.34,-217.8 2935.34,-181.8 3018.66,-181.8 3018.66,-217.8"/>
<text text-anchor="middle" x="2977" y="-195.6" font-family="Times,serif" font-size="14.00">AppModule</text>
</g>
<!-- AppComponent&#45;&gt;AppModule -->
<g id="edge1" class="edge">
<title>AppComponent&#45;&gt;AppModule</title>
<path fill="none" stroke="black" d="M3579.23,-143.8C3427.94,-143.8 3003.5,-143.8 3003.5,-143.8 3003.5,-143.8 3003.5,-171.77 3003.5,-171.77"/>
<polygon fill="black" stroke="black" points="3000,-171.77 3003.5,-181.77 3007,-171.77 3000,-171.77"/>
</g>
<!-- HomeComponent -->
<g id="node2" class="node">
<title>HomeComponent</title>
<polygon fill="#ffffb3" stroke="black" points="3817.55,-152.8 3702.45,-152.8 3702.45,-116.8 3817.55,-116.8 3817.55,-152.8"/>
<text text-anchor="middle" x="3760" y="-130.6" font-family="Times,serif" font-size="14.00">HomeComponent</text>
</g>
<!-- HomeComponent&#45;&gt;AppModule -->
<g id="edge2" class="edge">
<title>HomeComponent&#45;&gt;AppModule</title>
<path fill="none" stroke="black" d="M3760,-152.81C3760,-175.29 3760,-210.8 3760,-210.8 3760,-210.8 3028.82,-210.8 3028.82,-210.8"/>
<polygon fill="black" stroke="black" points="3028.82,-207.3 3018.82,-210.8 3028.82,-214.3 3028.82,-207.3"/>
</g>
<!-- AppComponent  -->
<g id="node14" class="node">
<title>AppComponent </title>
<polygon fill="#80b1d3" stroke="black" points="3031.44,-285.8 2922.56,-285.8 2922.56,-249.8 3031.44,-249.8 3031.44,-285.8"/>
<text text-anchor="middle" x="2977" y="-263.6" font-family="Times,serif" font-size="14.00">AppComponent </text>
</g>
<!-- AppModule&#45;&gt;AppComponent  -->
<g id="edge13" class="edge">
<title>AppModule&#45;&gt;AppComponent </title>
<path fill="none" stroke="black" stroke-dasharray="1,5" d="M2977,-218.02C2977,-218.02 2977,-239.53 2977,-239.53"/>
<polygon fill="black" stroke="black" points="2973.5,-239.53 2977,-249.53 2980.5,-239.53 2973.5,-239.53"/>
</g>
<!-- BrowserModule -->
<g id="node4" class="node">
<title>BrowserModule</title>
<polygon fill="#8dd3c7" stroke="black" points="3408.47,-84.8 3405.47,-88.8 3384.47,-88.8 3381.47,-84.8 3301.53,-84.8 3301.53,-48.8 3408.47,-48.8 3408.47,-84.8"/>
<text text-anchor="middle" x="3355" y="-62.6" font-family="Times,serif" font-size="14.00">BrowserModule</text>
</g>
<!-- BrowserModule&#45;&gt;AppModule -->
<g id="edge3" class="edge">
<title>BrowserModule&#45;&gt;AppModule</title>
<path fill="none" stroke="black" d="M3355,-84.88C3355,-120.6 3355,-196.8 3355,-196.8 3355,-196.8 3028.9,-196.8 3028.9,-196.8"/>
<polygon fill="black" stroke="black" points="3028.9,-193.3 3018.9,-196.8 3028.9,-200.3 3028.9,-193.3"/>
</g>
<!-- AppRoutingModule -->
<g id="node5" class="node">
<title>AppRoutingModule</title>
<polygon fill="#8dd3c7" stroke="black" points="3555.27,-84.8 3552.27,-88.8 3531.27,-88.8 3528.27,-84.8 3426.73,-84.8 3426.73,-48.8 3555.27,-48.8 3555.27,-84.8"/>
<text text-anchor="middle" x="3491" y="-62.6" font-family="Times,serif" font-size="14.00">AppRoutingModule</text>
</g>
<!-- AppRoutingModule&#45;&gt;AppModule -->
<g id="edge4" class="edge">
<title>AppRoutingModule&#45;&gt;AppModule</title>
<path fill="none" stroke="black" d="M3491,-84.99C3491,-122.26 3491,-203.8 3491,-203.8 3491,-203.8 3029.06,-203.8 3029.06,-203.8"/>
<polygon fill="black" stroke="black" points="3029.06,-200.3 3019.06,-203.8 3029.06,-207.3 3029.06,-200.3"/>
</g>
<!-- HttpClientModule -->
<g id="node6" class="node">
<title>HttpClientModule</title>
<polygon fill="#8dd3c7" stroke="black" points="2955.16,-84.8 2952.16,-88.8 2931.16,-88.8 2928.16,-84.8 2836.84,-84.8 2836.84,-48.8 2955.16,-48.8 2955.16,-84.8"/>
<text text-anchor="middle" x="2896" y="-62.6" font-family="Times,serif" font-size="14.00">HttpClientModule</text>
</g>
<!-- HttpClientModule&#45;&gt;AppModule -->
<g id="edge5" class="edge">
<title>HttpClientModule&#45;&gt;AppModule</title>
<path fill="none" stroke="black" d="M2948.61,-85.01C2948.61,-85.01 2948.61,-171.38 2948.61,-171.38"/>
<polygon fill="black" stroke="black" points="2945.11,-171.38 2948.61,-181.38 2952.11,-171.38 2945.11,-171.38"/>
</g>
<!-- BrowserAnimationsModule -->
<g id="node7" class="node">
<title>BrowserAnimationsModule</title>
<polygon fill="#8dd3c7" stroke="black" points="3145.3,-84.8 3142.3,-88.8 3121.3,-88.8 3118.3,-84.8 2972.7,-84.8 2972.7,-48.8 3145.3,-48.8 3145.3,-84.8"/>
<text text-anchor="middle" x="3059" y="-62.6" font-family="Times,serif" font-size="14.00">BrowserAnimationsModule</text>
</g>
<!-- BrowserAnimationsModule&#45;&gt;AppModule -->
<g id="edge6" class="edge">
<title>BrowserAnimationsModule&#45;&gt;AppModule</title>
<path fill="none" stroke="black" d="M2988.18,-85.01C2988.18,-85.01 2988.18,-171.38 2988.18,-171.38"/>
<polygon fill="black" stroke="black" points="2984.68,-171.38 2988.18,-181.38 2991.68,-171.38 2984.68,-171.38"/>
</g>
<!-- MatToolbarModule -->
<g id="node8" class="node">
<title>MatToolbarModule</title>
<polygon fill="#8dd3c7" stroke="black" points="2673.42,-84.8 2670.42,-88.8 2649.42,-88.8 2646.42,-84.8 2546.58,-84.8 2546.58,-48.8 2673.42,-48.8 2673.42,-84.8"/>
<text text-anchor="middle" x="2610" y="-62.6" font-family="Times,serif" font-size="14.00">MatToolbarModule</text>
</g>
<!-- MatToolbarModule&#45;&gt;AppModule -->
<g id="edge7" class="edge">
<title>MatToolbarModule&#45;&gt;AppModule</title>
<path fill="none" stroke="black" d="M2631.07,-84.88C2631.07,-120.6 2631.07,-196.8 2631.07,-196.8 2631.07,-196.8 2925.27,-196.8 2925.27,-196.8"/>
<polygon fill="black" stroke="black" points="2925.27,-200.3 2935.27,-196.8 2925.27,-193.3 2925.27,-200.3"/>
</g>
<!-- SharedModule -->
<g id="node13" class="node">
<title>SharedModule</title>
<polygon fill="#8dd3c7" stroke="black" points="2377.42,-152.8 2374.42,-156.8 2353.42,-156.8 2350.42,-152.8 2278.58,-152.8 2278.58,-116.8 2377.42,-116.8 2377.42,-152.8"/>
<text text-anchor="middle" x="2328" y="-130.6" font-family="Times,serif" font-size="14.00">SharedModule</text>
</g>
<!-- MatToolbarModule&#45;&gt;SharedModule -->
<g id="edge46" class="edge">
<title>MatToolbarModule&#45;&gt;SharedModule</title>
<path fill="none" stroke="black" d="M2588.93,-84.82C2588.93,-102.17 2588.93,-125.8 2588.93,-125.8 2588.93,-125.8 2387.39,-125.8 2387.39,-125.8"/>
<polygon fill="black" stroke="black" points="2387.39,-122.3 2377.39,-125.8 2387.39,-129.3 2387.39,-122.3"/>
</g>
<!-- MatSidenavModule -->
<g id="node9" class="node">
<title>MatSidenavModule</title>
<polygon fill="#8dd3c7" stroke="black" points="2818.7,-84.8 2815.7,-88.8 2794.7,-88.8 2791.7,-84.8 2691.3,-84.8 2691.3,-48.8 2818.7,-48.8 2818.7,-84.8"/>
<text text-anchor="middle" x="2755" y="-62.6" font-family="Times,serif" font-size="14.00">MatSidenavModule</text>
</g>
<!-- MatSidenavModule&#45;&gt;AppModule -->
<g id="edge8" class="edge">
<title>MatSidenavModule&#45;&gt;AppModule</title>
<path fill="none" stroke="black" d="M2776.2,-84.95C2776.2,-119.16 2776.2,-189.8 2776.2,-189.8 2776.2,-189.8 2924.91,-189.8 2924.91,-189.8"/>
<polygon fill="black" stroke="black" points="2924.91,-193.3 2934.91,-189.8 2924.91,-186.3 2924.91,-193.3"/>
</g>
<!-- MatSidenavModule&#45;&gt;SharedModule -->
<g id="edge42" class="edge">
<title>MatSidenavModule&#45;&gt;SharedModule</title>
<path fill="none" stroke="black" d="M2733.8,-84.97C2733.8,-103.89 2733.8,-130.8 2733.8,-130.8 2733.8,-130.8 2387.35,-130.8 2387.35,-130.8"/>
<polygon fill="black" stroke="black" points="2387.35,-127.3 2377.35,-130.8 2387.35,-134.3 2387.35,-127.3"/>
</g>
<!-- MatButtonModule -->
<g id="node10" class="node">
<title>MatButtonModule</title>
<polygon fill="#8dd3c7" stroke="black" points="3283.22,-84.8 3280.22,-88.8 3259.22,-88.8 3256.22,-84.8 3162.78,-84.8 3162.78,-48.8 3283.22,-48.8 3283.22,-84.8"/>
<text text-anchor="middle" x="3223" y="-62.6" font-family="Times,serif" font-size="14.00">MatButtonModule</text>
</g>
<!-- MatButtonModule&#45;&gt;AppModule -->
<g id="edge9" class="edge">
<title>MatButtonModule&#45;&gt;AppModule</title>
<path fill="none" stroke="black" d="M3253.05,-84.95C3253.05,-119.16 3253.05,-189.8 3253.05,-189.8 3253.05,-189.8 3028.93,-189.8 3028.93,-189.8"/>
<polygon fill="black" stroke="black" points="3028.93,-186.3 3018.93,-189.8 3028.93,-193.3 3028.93,-186.3"/>
</g>
<!-- MatButtonModule&#45;&gt;SharedModule -->
<g id="edge34" class="edge">
<title>MatButtonModule&#45;&gt;SharedModule</title>
<path fill="none" stroke="black" d="M3223,-85.02C3223,-105.17 3223,-134.8 3223,-134.8 3223,-134.8 2387.39,-134.8 2387.39,-134.8"/>
<polygon fill="black" stroke="black" points="2387.39,-131.3 2377.39,-134.8 2387.39,-138.3 2387.39,-131.3"/>
</g>
<!-- ClienteModule -->
<g id="node17" class="node">
<title>ClienteModule</title>
<polygon fill="#8dd3c7" stroke="black" points="4380.99,-152.8 4377.99,-156.8 4356.99,-156.8 4353.99,-152.8 4281.01,-152.8 4281.01,-116.8 4380.99,-116.8 4380.99,-152.8"/>
<text text-anchor="middle" x="4331" y="-130.6" font-family="Times,serif" font-size="14.00">ClienteModule</text>
</g>
<!-- MatButtonModule&#45;&gt;ClienteModule -->
<g id="edge18" class="edge">
<title>MatButtonModule&#45;&gt;ClienteModule</title>
<path fill="none" stroke="black" d="M3192.95,-84.84C3192.95,-97.36 3192.95,-111.8 3192.95,-111.8 3192.95,-111.8 4294.56,-111.8 4294.56,-111.8 4294.56,-111.8 4294.56,-112.29 4294.56,-112.29"/>
<polygon fill="black" stroke="black" points="4291.06,-106.68 4294.56,-116.68 4298.06,-106.68 4291.06,-106.68"/>
</g>
<!-- MatIconModule -->
<g id="node11" class="node">
<title>MatIconModule</title>
<polygon fill="#8dd3c7" stroke="black" points="2385.47,-84.8 2382.47,-88.8 2361.47,-88.8 2358.47,-84.8 2278.53,-84.8 2278.53,-48.8 2385.47,-48.8 2385.47,-84.8"/>
<text text-anchor="middle" x="2332" y="-62.6" font-family="Times,serif" font-size="14.00">MatIconModule</text>
</g>
<!-- MatIconModule&#45;&gt;AppModule -->
<g id="edge10" class="edge">
<title>MatIconModule&#45;&gt;AppModule</title>
<path fill="none" stroke="black" d="M2381.35,-85.04C2381.35,-123.79 2381.35,-210.8 2381.35,-210.8 2381.35,-210.8 2925.11,-210.8 2925.11,-210.8"/>
<polygon fill="black" stroke="black" points="2925.12,-214.3 2935.11,-210.8 2925.11,-207.3 2925.12,-214.3"/>
</g>
<!-- MatIconModule&#45;&gt;SharedModule -->
<g id="edge37" class="edge">
<title>MatIconModule&#45;&gt;SharedModule</title>
<path fill="none" stroke="black" d="M2295.19,-85.02C2295.19,-85.02 2295.19,-106.53 2295.19,-106.53"/>
<polygon fill="black" stroke="black" points="2291.69,-106.53 2295.19,-116.53 2298.69,-106.53 2291.69,-106.53"/>
</g>
<!-- MatDividerModule -->
<g id="node12" class="node">
<title>MatDividerModule</title>
<polygon fill="#8dd3c7" stroke="black" points="2528.36,-84.8 2525.36,-88.8 2504.36,-88.8 2501.36,-84.8 2403.64,-84.8 2403.64,-48.8 2528.36,-48.8 2528.36,-84.8"/>
<text text-anchor="middle" x="2466" y="-62.6" font-family="Times,serif" font-size="14.00">MatDividerModule</text>
</g>
<!-- MatDividerModule&#45;&gt;AppModule -->
<g id="edge11" class="edge">
<title>MatDividerModule&#45;&gt;AppModule</title>
<path fill="none" stroke="black" d="M2486.81,-84.99C2486.81,-122.26 2486.81,-203.8 2486.81,-203.8 2486.81,-203.8 2925.21,-203.8 2925.21,-203.8"/>
<polygon fill="black" stroke="black" points="2925.21,-207.3 2935.21,-203.8 2925.21,-200.3 2925.21,-207.3"/>
</g>
<!-- MatDividerModule&#45;&gt;SharedModule -->
<g id="edge36" class="edge">
<title>MatDividerModule&#45;&gt;SharedModule</title>
<path fill="none" stroke="black" d="M2445.19,-84.81C2445.19,-100.85 2445.19,-121.8 2445.19,-121.8 2445.19,-121.8 2387.36,-121.8 2387.36,-121.8"/>
<polygon fill="black" stroke="black" points="2387.36,-118.3 2377.36,-121.8 2387.36,-125.3 2387.36,-118.3"/>
</g>
<!-- SharedModule&#45;&gt;AppModule -->
<g id="edge12" class="edge">
<title>SharedModule&#45;&gt;AppModule</title>
<path fill="none" stroke="black" d="M2377.46,-148.8C2523.37,-148.8 2941.89,-148.8 2941.89,-148.8 2941.89,-148.8 2941.89,-171.68 2941.89,-171.68"/>
<polygon fill="black" stroke="black" points="2938.39,-171.68 2941.89,-181.68 2945.39,-171.68 2938.39,-171.68"/>
</g>
<!-- SharedModule&#45;&gt;ClienteModule -->
<g id="edge23" class="edge">
<title>SharedModule&#45;&gt;ClienteModule</title>
<path fill="none" stroke="black" d="M2328,-152.84C2328,-160.55 2328,-167.8 2328,-167.8 2328,-167.8 4294.18,-167.8 4294.18,-167.8 4294.18,-167.8 4294.18,-162.84 4294.18,-162.84"/>
<polygon fill="black" stroke="black" points="4297.68,-162.84 4294.18,-152.84 4290.68,-162.84 4297.68,-162.84"/>
</g>
<!-- MatCardModule  -->
<g id="node37" class="node">
<title>MatCardModule </title>
<polygon fill="#fb8072" stroke="black" points="136.31,-84.8 23.69,-84.8 23.69,-48.8 136.31,-48.8 136.31,-84.8"/>
<text text-anchor="middle" x="80" y="-62.6" font-family="Times,serif" font-size="14.00">MatCardModule </text>
</g>
<!-- SharedModule&#45;&gt;MatCardModule  -->
<g id="edge48" class="edge">
<title>SharedModule&#45;&gt;MatCardModule </title>
<path fill="none" stroke="black" stroke-dasharray="5,2" d="M2278.69,-150.8C1949.21,-150.8 80,-150.8 80,-150.8 80,-150.8 80,-95.03 80,-95.03"/>
<polygon fill="black" stroke="black" points="83.5,-95.03 80,-85.03 76.5,-95.03 83.5,-95.03"/>
</g>
<!-- InputComponent  -->
<g id="node38" class="node">
<title>InputComponent </title>
<polygon fill="#fb8072" stroke="black" points="702.38,-84.8 587.62,-84.8 587.62,-48.8 702.38,-48.8 702.38,-84.8"/>
<text text-anchor="middle" x="645" y="-62.6" font-family="Times,serif" font-size="14.00">InputComponent </text>
</g>
<!-- SharedModule&#45;&gt;InputComponent  -->
<g id="edge49" class="edge">
<title>SharedModule&#45;&gt;InputComponent </title>
<path fill="none" stroke="black" stroke-dasharray="5,2" d="M2278.54,-142.8C2000.55,-142.8 645,-142.8 645,-142.8 645,-142.8 645,-94.81 645,-94.81"/>
<polygon fill="black" stroke="black" points="648.5,-94.81 645,-84.81 641.5,-94.81 648.5,-94.81"/>
</g>
<!-- ButtonComponent  -->
<g id="node39" class="node">
<title>ButtonComponent </title>
<polygon fill="#fb8072" stroke="black" points="569.45,-84.8 446.55,-84.8 446.55,-48.8 569.45,-48.8 569.45,-84.8"/>
<text text-anchor="middle" x="508" y="-62.6" font-family="Times,serif" font-size="14.00">ButtonComponent </text>
</g>
<!-- SharedModule&#45;&gt;ButtonComponent  -->
<g id="edge50" class="edge">
<title>SharedModule&#45;&gt;ButtonComponent </title>
<path fill="none" stroke="black" stroke-dasharray="5,2" d="M2278.38,-144.8C1986.68,-144.8 508,-144.8 508,-144.8 508,-144.8 508,-94.89 508,-94.89"/>
<polygon fill="black" stroke="black" points="511.5,-94.89 508,-84.89 504.5,-94.89 511.5,-94.89"/>
</g>
<!-- PageTitleComponent  -->
<g id="node40" class="node">
<title>PageTitleComponent </title>
<polygon fill="#fb8072" stroke="black" points="428.48,-84.8 289.52,-84.8 289.52,-48.8 428.48,-48.8 428.48,-84.8"/>
<text text-anchor="middle" x="359" y="-62.6" font-family="Times,serif" font-size="14.00">PageTitleComponent </text>
</g>
<!-- SharedModule&#45;&gt;PageTitleComponent  -->
<g id="edge51" class="edge">
<title>SharedModule&#45;&gt;PageTitleComponent </title>
<path fill="none" stroke="black" stroke-dasharray="5,2" d="M2278.34,-146.8C1972.63,-146.8 359,-146.8 359,-146.8 359,-146.8 359,-94.95 359,-94.95"/>
<polygon fill="black" stroke="black" points="362.5,-94.95 359,-84.95 355.5,-94.95 362.5,-94.95"/>
</g>
<!-- TableComponent  -->
<g id="node41" class="node">
<title>TableComponent </title>
<polygon fill="#fb8072" stroke="black" points="271.21,-84.8 154.79,-84.8 154.79,-48.8 271.21,-48.8 271.21,-84.8"/>
<text text-anchor="middle" x="213" y="-62.6" font-family="Times,serif" font-size="14.00">TableComponent </text>
</g>
<!-- SharedModule&#45;&gt;TableComponent  -->
<g id="edge52" class="edge">
<title>SharedModule&#45;&gt;TableComponent </title>
<path fill="none" stroke="black" stroke-dasharray="5,2" d="M2278.58,-148.8C1960.34,-148.8 213,-148.8 213,-148.8 213,-148.8 213,-95 213,-95"/>
<polygon fill="black" stroke="black" points="216.5,-95 213,-85 209.5,-95 216.5,-95"/>
</g>
<!-- ClienteFormComponent -->
<g id="node15" class="node">
<title>ClienteFormComponent</title>
<polygon fill="#ffffb3" stroke="black" points="4903.1,-84.8 4750.9,-84.8 4750.9,-48.8 4903.1,-48.8 4903.1,-84.8"/>
<text text-anchor="middle" x="4827" y="-62.6" font-family="Times,serif" font-size="14.00">ClienteFormComponent</text>
</g>
<!-- ClienteFormComponent&#45;&gt;ClienteModule -->
<g id="edge14" class="edge">
<title>ClienteFormComponent&#45;&gt;ClienteModule</title>
<path fill="none" stroke="black" d="M4827,-84.97C4827,-106.3 4827,-138.8 4827,-138.8 4827,-138.8 4391.29,-138.8 4391.29,-138.8"/>
<polygon fill="black" stroke="black" points="4391.29,-135.3 4381.29,-138.8 4391.29,-142.3 4391.29,-135.3"/>
</g>
<!-- ClienteListComponent -->
<g id="node16" class="node">
<title>ClienteListComponent</title>
<polygon fill="#ffffb3" stroke="black" points="5064.55,-84.8 4921.45,-84.8 4921.45,-48.8 5064.55,-48.8 5064.55,-84.8"/>
<text text-anchor="middle" x="4993" y="-62.6" font-family="Times,serif" font-size="14.00">ClienteListComponent</text>
</g>
<!-- ClienteListComponent&#45;&gt;ClienteModule -->
<g id="edge15" class="edge">
<title>ClienteListComponent&#45;&gt;ClienteModule</title>
<path fill="none" stroke="black" d="M4993,-85.12C4993,-108.46 4993,-145.8 4993,-145.8 4993,-145.8 4391.03,-145.8 4391.03,-145.8"/>
<polygon fill="black" stroke="black" points="4391.03,-142.3 4381.03,-145.8 4391.03,-149.3 4391.03,-142.3"/>
</g>
<!-- ClienteListComponent  -->
<g id="node24" class="node">
<title>ClienteListComponent </title>
<polygon fill="#fb8072" stroke="black" points="4320.55,-217.8 4173.45,-217.8 4173.45,-181.8 4320.55,-181.8 4320.55,-217.8"/>
<text text-anchor="middle" x="4247" y="-195.6" font-family="Times,serif" font-size="14.00">ClienteListComponent </text>
</g>
<!-- ClienteModule&#45;&gt;ClienteListComponent  -->
<g id="edge24" class="edge">
<title>ClienteModule&#45;&gt;ClienteListComponent </title>
<path fill="none" stroke="black" stroke-dasharray="5,2" d="M4307.35,-152.91C4307.35,-152.91 4307.35,-171.79 4307.35,-171.79"/>
<polygon fill="black" stroke="black" points="4303.85,-171.79 4307.35,-181.79 4310.85,-171.79 4303.85,-171.79"/>
</g>
<!-- ClienteFormComponent  -->
<g id="node25" class="node">
<title>ClienteFormComponent </title>
<polygon fill="#fb8072" stroke="black" points="4493.6,-217.8 4338.4,-217.8 4338.4,-181.8 4493.6,-181.8 4493.6,-217.8"/>
<text text-anchor="middle" x="4416" y="-195.6" font-family="Times,serif" font-size="14.00">ClienteFormComponent </text>
</g>
<!-- ClienteModule&#45;&gt;ClienteFormComponent  -->
<g id="edge25" class="edge">
<title>ClienteModule&#45;&gt;ClienteFormComponent </title>
<path fill="none" stroke="black" stroke-dasharray="5,2" d="M4359.6,-152.91C4359.6,-152.91 4359.6,-171.79 4359.6,-171.79"/>
<polygon fill="black" stroke="black" points="4356.1,-171.79 4359.6,-181.79 4363.1,-171.79 4356.1,-171.79"/>
</g>
<!-- CommonModule -->
<g id="node18" class="node">
<title>CommonModule</title>
<polygon fill="#8dd3c7" stroke="black" points="4450.67,-84.8 4447.67,-88.8 4426.67,-88.8 4423.67,-84.8 4339.33,-84.8 4339.33,-48.8 4450.67,-48.8 4450.67,-84.8"/>
<text text-anchor="middle" x="4395" y="-62.6" font-family="Times,serif" font-size="14.00">CommonModule</text>
</g>
<!-- CommonModule&#45;&gt;SharedModule -->
<g id="edge31" class="edge">
<title>CommonModule&#45;&gt;SharedModule</title>
<path fill="none" stroke="black" d="M4353.11,-84.99C4353.11,-93.08 4353.11,-100.8 4353.11,-100.8 4353.11,-100.8 2344.4,-100.8 2344.4,-100.8 2344.4,-100.8 2344.4,-106.61 2344.4,-106.61"/>
<polygon fill="black" stroke="black" points="2340.9,-106.61 2344.4,-116.61 2347.9,-106.61 2340.9,-106.61"/>
</g>
<!-- CommonModule&#45;&gt;ClienteModule -->
<g id="edge16" class="edge">
<title>CommonModule&#45;&gt;ClienteModule</title>
<path fill="none" stroke="black" d="M4367.05,-85.02C4367.05,-85.02 4367.05,-106.53 4367.05,-106.53"/>
<polygon fill="black" stroke="black" points="4363.55,-106.53 4367.05,-116.53 4370.55,-106.53 4363.55,-106.53"/>
</g>
<!-- MatCardModule -->
<g id="node19" class="node">
<title>MatCardModule</title>
<polygon fill="#8dd3c7" stroke="black" points="4321.81,-84.8 4318.81,-88.8 4297.81,-88.8 4294.81,-84.8 4212.19,-84.8 4212.19,-48.8 4321.81,-48.8 4321.81,-84.8"/>
<text text-anchor="middle" x="4267" y="-62.6" font-family="Times,serif" font-size="14.00">MatCardModule</text>
</g>
<!-- MatCardModule&#45;&gt;SharedModule -->
<g id="edge35" class="edge">
<title>MatCardModule&#45;&gt;SharedModule</title>
<path fill="none" stroke="black" d="M4246.68,-85C4246.68,-90.83 4246.68,-95.8 4246.68,-95.8 4246.68,-95.8 2328,-95.8 2328,-95.8 2328,-95.8 2328,-106.67 2328,-106.67"/>
<polygon fill="black" stroke="black" points="2324.5,-106.67 2328,-116.67 2331.5,-106.67 2324.5,-106.67"/>
</g>
<!-- MatCardModule&#45;&gt;ClienteModule -->
<g id="edge17" class="edge">
<title>MatCardModule&#45;&gt;ClienteModule</title>
<path fill="none" stroke="black" d="M4308.11,-85.02C4308.11,-85.02 4308.11,-106.53 4308.11,-106.53"/>
<polygon fill="black" stroke="black" points="4304.61,-106.53 4308.11,-116.53 4311.61,-106.53 4304.61,-106.53"/>
</g>
<!-- MatProgressSpinnerModule -->
<g id="node20" class="node">
<title>MatProgressSpinnerModule</title>
<polygon fill="#8dd3c7" stroke="black" points="4193.86,-84.8 4190.86,-88.8 4169.86,-88.8 4166.86,-84.8 4020.14,-84.8 4020.14,-48.8 4193.86,-48.8 4193.86,-84.8"/>
<text text-anchor="middle" x="4107" y="-62.6" font-family="Times,serif" font-size="14.00">MatProgressSpinnerModule</text>
</g>
<!-- MatProgressSpinnerModule&#45;&gt;SharedModule -->
<g id="edge40" class="edge">
<title>MatProgressSpinnerModule&#45;&gt;SharedModule</title>
<path fill="none" stroke="black" d="M4096.77,-84.99C4096.77,-88.34 4096.77,-90.8 4096.77,-90.8 4096.77,-90.8 2311.6,-90.8 2311.6,-90.8 2311.6,-90.8 2311.6,-106.65 2311.6,-106.65"/>
<polygon fill="black" stroke="black" points="2308.1,-106.65 2311.6,-116.65 2315.1,-106.65 2308.1,-106.65"/>
</g>
<!-- MatProgressSpinnerModule&#45;&gt;ClienteModule -->
<g id="edge19" class="edge">
<title>MatProgressSpinnerModule&#45;&gt;ClienteModule</title>
<path fill="none" stroke="black" d="M4183.7,-85.07C4183.7,-103.36 4183.7,-128.8 4183.7,-128.8 4183.7,-128.8 4270.72,-128.8 4270.72,-128.8"/>
<polygon fill="black" stroke="black" points="4270.72,-132.3 4280.72,-128.8 4270.72,-125.3 4270.72,-132.3"/>
</g>
<!-- ClienteRoutingModule -->
<g id="node21" class="node">
<title>ClienteRoutingModule</title>
<polygon fill="#8dd3c7" stroke="black" points="4726.61,-84.8 4723.61,-88.8 4702.61,-88.8 4699.61,-84.8 4581.39,-84.8 4581.39,-48.8 4726.61,-48.8 4726.61,-84.8"/>
<text text-anchor="middle" x="4654" y="-62.6" font-family="Times,serif" font-size="14.00">ClienteRoutingModule</text>
</g>
<!-- ClienteRoutingModule&#45;&gt;ClienteModule -->
<g id="edge20" class="edge">
<title>ClienteRoutingModule&#45;&gt;ClienteModule</title>
<path fill="none" stroke="black" d="M4654,-84.91C4654,-104.14 4654,-131.8 4654,-131.8 4654,-131.8 4391.11,-131.8 4391.11,-131.8"/>
<polygon fill="black" stroke="black" points="4391.11,-128.3 4381.11,-131.8 4391.11,-135.3 4391.11,-128.3"/>
</g>
<!-- FormsModule -->
<g id="node22" class="node">
<title>FormsModule</title>
<polygon fill="#8dd3c7" stroke="black" points="4563.83,-84.8 4560.83,-88.8 4539.83,-88.8 4536.83,-84.8 4468.17,-84.8 4468.17,-48.8 4563.83,-48.8 4563.83,-84.8"/>
<text text-anchor="middle" x="4516" y="-62.6" font-family="Times,serif" font-size="14.00">FormsModule</text>
</g>
<!-- FormsModule&#45;&gt;SharedModule -->
<g id="edge32" class="edge">
<title>FormsModule&#45;&gt;SharedModule</title>
<path fill="none" stroke="black" d="M4476.82,-84.93C4476.82,-95.51 4476.82,-106.8 4476.82,-106.8 4476.82,-106.8 2360.81,-106.8 2360.81,-106.8 2360.81,-106.8 2360.81,-107.78 2360.81,-107.78"/>
<polygon fill="black" stroke="black" points="2357.31,-106.59 2360.81,-116.59 2364.31,-106.59 2357.31,-106.59"/>
</g>
<!-- FormsModule&#45;&gt;ClienteModule -->
<g id="edge21" class="edge">
<title>FormsModule&#45;&gt;ClienteModule</title>
<path fill="none" stroke="black" d="M4485.31,-84.83C4485.31,-101.86 4485.31,-124.8 4485.31,-124.8 4485.31,-124.8 4391.1,-124.8 4391.1,-124.8"/>
<polygon fill="black" stroke="black" points="4391.1,-121.3 4381.1,-124.8 4391.1,-128.3 4391.1,-121.3"/>
</g>
<!-- ReactiveFormsModule -->
<g id="node23" class="node">
<title>ReactiveFormsModule</title>
<polygon fill="#8dd3c7" stroke="black" points="4002.3,-84.8 3999.3,-88.8 3978.3,-88.8 3975.3,-84.8 3857.7,-84.8 3857.7,-48.8 4002.3,-48.8 4002.3,-84.8"/>
<text text-anchor="middle" x="3930" y="-62.6" font-family="Times,serif" font-size="14.00">ReactiveFormsModule</text>
</g>
<!-- ReactiveFormsModule&#45;&gt;SharedModule -->
<g id="edge33" class="edge">
<title>ReactiveFormsModule&#45;&gt;SharedModule</title>
<path fill="none" stroke="black" d="M3857.48,-66.8C3751.65,-66.8 3567.33,-66.8 3567.33,-66.8 3567.33,-66.8 3567.33,-139.8 3567.33,-139.8 3567.33,-139.8 2387.35,-139.8 2387.35,-139.8"/>
<polygon fill="black" stroke="black" points="2387.35,-136.3 2377.35,-139.8 2387.35,-143.3 2387.35,-136.3"/>
</g>
<!-- ReactiveFormsModule&#45;&gt;ClienteModule -->
<g id="edge22" class="edge">
<title>ReactiveFormsModule&#45;&gt;ClienteModule</title>
<path fill="none" stroke="black" d="M3930,-85.09C3930,-107.01 3930,-140.8 3930,-140.8 3930,-140.8 4270.62,-140.8 4270.62,-140.8"/>
<polygon fill="black" stroke="black" points="4270.62,-144.3 4280.62,-140.8 4270.62,-137.3 4270.62,-144.3"/>
</g>
<!-- ButtonComponent -->
<g id="node26" class="node">
<title>ButtonComponent</title>
<polygon fill="#ffffb3" stroke="black" points="1826.95,-84.8 1707.05,-84.8 1707.05,-48.8 1826.95,-48.8 1826.95,-84.8"/>
<text text-anchor="middle" x="1767" y="-62.6" font-family="Times,serif" font-size="14.00">ButtonComponent</text>
</g>
<!-- ButtonComponent&#45;&gt;SharedModule -->
<g id="edge26" class="edge">
<title>ButtonComponent&#45;&gt;SharedModule</title>
<path fill="none" stroke="black" d="M1786.91,-84.83C1786.91,-101.86 1786.91,-124.8 1786.91,-124.8 1786.91,-124.8 2268.55,-124.8 2268.55,-124.8"/>
<polygon fill="black" stroke="black" points="2268.55,-128.3 2278.55,-124.8 2268.55,-121.3 2268.55,-128.3"/>
</g>
<!-- ButtonComponent&#45;&gt;SharedModule -->
<g id="edge27" class="edge">
<title>ButtonComponent&#45;&gt;SharedModule</title>
<path fill="none" stroke="black" d="M1747.09,-84.8C1747.09,-102.48 1747.09,-126.8 1747.09,-126.8 1747.09,-126.8 2268.47,-126.8 2268.47,-126.8"/>
<polygon fill="black" stroke="black" points="2268.47,-130.3 2278.47,-126.8 2268.47,-123.3 2268.47,-130.3"/>
</g>
<!-- PageTitleComponent -->
<g id="node27" class="node">
<title>PageTitleComponent</title>
<polygon fill="#ffffb3" stroke="black" points="2239.48,-84.8 2104.52,-84.8 2104.52,-48.8 2239.48,-48.8 2239.48,-84.8"/>
<text text-anchor="middle" x="2172" y="-62.6" font-family="Times,serif" font-size="14.00">PageTitleComponent</text>
</g>
<!-- PageTitleComponent&#45;&gt;SharedModule -->
<g id="edge28" class="edge">
<title>PageTitleComponent&#45;&gt;SharedModule</title>
<path fill="none" stroke="black" d="M2172,-84.99C2172,-99.98 2172,-118.8 2172,-118.8 2172,-118.8 2268.64,-118.8 2268.64,-118.8"/>
<polygon fill="black" stroke="black" points="2268.64,-122.3 2278.64,-118.8 2268.64,-115.3 2268.64,-122.3"/>
</g>
<!-- InputComponent -->
<g id="node28" class="node">
<title>InputComponent</title>
<polygon fill="#ffffb3" stroke="black" points="2086.38,-84.8 1975.62,-84.8 1975.62,-48.8 2086.38,-48.8 2086.38,-84.8"/>
<text text-anchor="middle" x="2031" y="-62.6" font-family="Times,serif" font-size="14.00">InputComponent</text>
</g>
<!-- InputComponent&#45;&gt;SharedModule -->
<g id="edge29" class="edge">
<title>InputComponent&#45;&gt;SharedModule</title>
<path fill="none" stroke="black" d="M2031,-85.08C2031,-100.75 2031,-120.8 2031,-120.8 2031,-120.8 2268.62,-120.8 2268.62,-120.8"/>
<polygon fill="black" stroke="black" points="2268.62,-124.3 2278.62,-120.8 2268.62,-117.3 2268.62,-124.3"/>
</g>
<!-- TableComponent -->
<g id="node29" class="node">
<title>TableComponent</title>
<polygon fill="#ffffb3" stroke="black" points="1957.7,-84.8 1844.3,-84.8 1844.3,-48.8 1957.7,-48.8 1957.7,-84.8"/>
<text text-anchor="middle" x="1901" y="-62.6" font-family="Times,serif" font-size="14.00">TableComponent</text>
</g>
<!-- TableComponent&#45;&gt;SharedModule -->
<g id="edge30" class="edge">
<title>TableComponent&#45;&gt;SharedModule</title>
<path fill="none" stroke="black" d="M1901,-84.83C1901,-101.2 1901,-122.8 1901,-122.8 1901,-122.8 2268.6,-122.8 2268.6,-122.8"/>
<polygon fill="black" stroke="black" points="2268.6,-126.3 2278.6,-122.8 2268.6,-119.3 2268.6,-126.3"/>
</g>
<!-- MatInputModule -->
<g id="node30" class="node">
<title>MatInputModule</title>
<polygon fill="#8dd3c7" stroke="black" points="1523.65,-84.8 1520.65,-88.8 1499.65,-88.8 1496.65,-84.8 1412.35,-84.8 1412.35,-48.8 1523.65,-48.8 1523.65,-84.8"/>
<text text-anchor="middle" x="1468" y="-62.6" font-family="Times,serif" font-size="14.00">MatInputModule</text>
</g>
<!-- MatInputModule&#45;&gt;SharedModule -->
<g id="edge38" class="edge">
<title>MatInputModule&#45;&gt;SharedModule</title>
<path fill="none" stroke="black" d="M1468,-84.97C1468,-103.89 1468,-130.8 1468,-130.8 1468,-130.8 2268.67,-130.8 2268.67,-130.8"/>
<polygon fill="black" stroke="black" points="2268.67,-134.3 2278.67,-130.8 2268.67,-127.3 2268.67,-134.3"/>
</g>
<!-- MatListModule -->
<g id="node31" class="node">
<title>MatListModule</title>
<polygon fill="#8dd3c7" stroke="black" points="1393.88,-84.8 1390.88,-88.8 1369.88,-88.8 1366.88,-84.8 1290.12,-84.8 1290.12,-48.8 1393.88,-48.8 1393.88,-84.8"/>
<text text-anchor="middle" x="1342" y="-62.6" font-family="Times,serif" font-size="14.00">MatListModule</text>
</g>
<!-- MatListModule&#45;&gt;SharedModule -->
<g id="edge39" class="edge">
<title>MatListModule&#45;&gt;SharedModule</title>
<path fill="none" stroke="black" d="M1342,-84.83C1342,-104.38 1342,-132.8 1342,-132.8 1342,-132.8 2268.77,-132.8 2268.77,-132.8"/>
<polygon fill="black" stroke="black" points="2268.77,-136.3 2278.77,-132.8 2268.77,-129.3 2268.77,-136.3"/>
</g>
<!-- MatPaginatorModule -->
<g id="node32" class="node">
<title>MatPaginatorModule</title>
<polygon fill="#8dd3c7" stroke="black" points="1271.75,-84.8 1268.75,-88.8 1247.75,-88.8 1244.75,-84.8 1136.25,-84.8 1136.25,-48.8 1271.75,-48.8 1271.75,-84.8"/>
<text text-anchor="middle" x="1204" y="-62.6" font-family="Times,serif" font-size="14.00">MatPaginatorModule</text>
</g>
<!-- MatPaginatorModule&#45;&gt;SharedModule -->
<g id="edge41" class="edge">
<title>MatPaginatorModule&#45;&gt;SharedModule</title>
<path fill="none" stroke="black" d="M1204,-85.02C1204,-105.17 1204,-134.8 1204,-134.8 1204,-134.8 2268.62,-134.8 2268.62,-134.8"/>
<polygon fill="black" stroke="black" points="2268.62,-138.3 2278.62,-134.8 2268.62,-131.3 2268.62,-138.3"/>
</g>
<!-- MatSnackBarModule -->
<g id="node33" class="node">
<title>MatSnackBarModule</title>
<polygon fill="#8dd3c7" stroke="black" points="1118.02,-84.8 1115.02,-88.8 1094.02,-88.8 1091.02,-84.8 981.98,-84.8 981.98,-48.8 1118.02,-48.8 1118.02,-84.8"/>
<text text-anchor="middle" x="1050" y="-62.6" font-family="Times,serif" font-size="14.00">MatSnackBarModule</text>
</g>
<!-- MatSnackBarModule&#45;&gt;SharedModule -->
<g id="edge43" class="edge">
<title>MatSnackBarModule&#45;&gt;SharedModule</title>
<path fill="none" stroke="black" d="M1050,-84.83C1050,-105.57 1050,-136.8 1050,-136.8 1050,-136.8 2268.68,-136.8 2268.68,-136.8"/>
<polygon fill="black" stroke="black" points="2268.68,-140.3 2278.68,-136.8 2268.68,-133.3 2268.68,-140.3"/>
</g>
<!-- MatSortModule -->
<g id="node34" class="node">
<title>MatSortModule</title>
<polygon fill="#8dd3c7" stroke="black" points="963.93,-84.8 960.93,-88.8 939.93,-88.8 936.93,-84.8 858.07,-84.8 858.07,-48.8 963.93,-48.8 963.93,-84.8"/>
<text text-anchor="middle" x="911" y="-62.6" font-family="Times,serif" font-size="14.00">MatSortModule</text>
</g>
<!-- MatSortModule&#45;&gt;SharedModule -->
<g id="edge44" class="edge">
<title>MatSortModule&#45;&gt;SharedModule</title>
<path fill="none" stroke="black" d="M911,-84.97C911,-106.3 911,-138.8 911,-138.8 911,-138.8 2268.4,-138.8 2268.4,-138.8"/>
<polygon fill="black" stroke="black" points="2268.4,-142.3 2278.4,-138.8 2268.4,-135.3 2268.4,-142.3"/>
</g>
<!-- MatTableModule -->
<g id="node35" class="node">
<title>MatTableModule</title>
<polygon fill="#8dd3c7" stroke="black" points="839.97,-84.8 836.97,-88.8 815.97,-88.8 812.97,-84.8 726.03,-84.8 726.03,-48.8 839.97,-48.8 839.97,-84.8"/>
<text text-anchor="middle" x="783" y="-62.6" font-family="Times,serif" font-size="14.00">MatTableModule</text>
</g>
<!-- MatTableModule&#45;&gt;SharedModule -->
<g id="edge45" class="edge">
<title>MatTableModule&#45;&gt;SharedModule</title>
<path fill="none" stroke="black" d="M783,-85.09C783,-107.01 783,-140.8 783,-140.8 783,-140.8 2268.78,-140.8 2268.78,-140.8"/>
<polygon fill="black" stroke="black" points="2268.78,-144.3 2278.78,-140.8 2268.78,-137.3 2268.78,-144.3"/>
</g>
<!-- MatFormFieldModule -->
<g id="node36" class="node">
<title>MatFormFieldModule</title>
<polygon fill="#8dd3c7" stroke="black" points="1682.71,-84.8 1679.71,-88.8 1658.71,-88.8 1655.71,-84.8 1541.29,-84.8 1541.29,-48.8 1682.71,-48.8 1682.71,-84.8"/>
<text text-anchor="middle" x="1612" y="-62.6" font-family="Times,serif" font-size="14.00">MatFormFieldModule</text>
</g>
<!-- MatFormFieldModule&#45;&gt;SharedModule -->
<g id="edge47" class="edge">
<title>MatFormFieldModule&#45;&gt;SharedModule</title>
<path fill="none" stroke="black" d="M1612,-85.07C1612,-103.36 1612,-128.8 1612,-128.8 1612,-128.8 2268.79,-128.8 2268.79,-128.8"/>
<polygon fill="black" stroke="black" points="2268.79,-132.3 2278.79,-128.8 2268.79,-125.3 2268.79,-132.3"/>
</g>
</g>
</svg>
