<?xml version="1.0" encoding="UTF-8" standalone="no"?>
<!DOCTYPE svg PUBLIC "-//W3C//DTD SVG 1.1//EN"
 "http://www.w3.org/Graphics/SVG/1.1/DTD/svg11.dtd">
<!-- Generated by graphviz version 2.47.3 (20210619.1520)
 -->
<!-- Title: dependencies Pages: 1 -->
<svg width="2990pt" height="247pt"
 viewBox="0.00 0.00 2990.00 246.80" xmlns="http://www.w3.org/2000/svg" xmlns:xlink="http://www.w3.org/1999/xlink">
<g id="graph0" class="graph" transform="scale(1 1) rotate(0) translate(4 242.8)">
<title>dependencies</title>
<polygon fill="white" stroke="transparent" points="-4,4 -4,-242.8 2986,-242.8 2986,4 -4,4"/>
<text text-anchor="middle" x="1491" y="-8.2" font-family="sans-serif" font-size="14.00">dependencies</text>
<g id="clust1" class="cluster">
<title>cluster_SharedModule</title>
<polygon fill="none" stroke="black" stroke-dasharray="1,5" points="8,-32.8 8,-230.8 2974,-230.8 2974,-32.8 8,-32.8"/>
</g>
<g id="clust7" class="cluster">
<title>cluster_SharedModule_imports</title>
<polygon fill="none" stroke="black" points="573,-40.8 573,-92.8 2966,-92.8 2966,-40.8 573,-40.8"/>
</g>
<g id="clust8" class="cluster">
<title>cluster_SharedModule_exports</title>
<polygon fill="none" stroke="black" points="1072,-170.8 1072,-222.8 1766,-222.8 1766,-170.8 1072,-170.8"/>
</g>
<g id="clust2" class="cluster">
<title>cluster_SharedModule_declarations</title>
<polygon fill="none" stroke="black" points="16,-40.8 16,-92.8 565,-92.8 565,-40.8 16,-40.8"/>
</g>
<!-- ButtonComponent -->
<g id="node1" class="node">
<title>ButtonComponent</title>
<polygon fill="#ffffb3" stroke="black" points="556.95,-84.8 437.05,-84.8 437.05,-48.8 556.95,-48.8 556.95,-84.8"/>
<text text-anchor="middle" x="497" y="-62.6" font-family="Times,serif" font-size="14.00">ButtonComponent</text>
</g>
<!-- SharedModule -->
<g id="node5" class="node">
<title>SharedModule</title>
<polygon fill="#8dd3c7" stroke="black" points="1482.42,-149.8 1479.42,-153.8 1458.42,-153.8 1455.42,-149.8 1383.58,-149.8 1383.58,-113.8 1482.42,-113.8 1482.42,-149.8"/>
<text text-anchor="middle" x="1433" y="-127.6" font-family="Times,serif" font-size="14.00">SharedModule</text>
</g>
<!-- ButtonComponent&#45;&gt;SharedModule -->
<g id="edge1" class="edge">
<title>ButtonComponent&#45;&gt;SharedModule</title>
<path fill="none" stroke="black" d="M477.09,-85.11C477.09,-104.95 477.09,-133.8 477.09,-133.8 477.09,-133.8 1373.62,-133.8 1373.62,-133.8"/>
<polygon fill="black" stroke="black" points="1373.62,-137.3 1383.62,-133.8 1373.62,-130.3 1373.62,-137.3"/>
</g>
<!-- ButtonComponent&#45;&gt;SharedModule -->
<g id="edge2" class="edge">
<title>ButtonComponent&#45;&gt;SharedModule</title>
<path fill="none" stroke="black" d="M516.91,-84.97C516.91,-103.89 516.91,-130.8 516.91,-130.8 516.91,-130.8 1373.75,-130.8 1373.75,-130.8"/>
<polygon fill="black" stroke="black" points="1373.75,-134.3 1383.75,-130.8 1373.75,-127.3 1373.75,-134.3"/>
</g>
<!-- PageTitleComponent -->
<g id="node2" class="node">
<title>PageTitleComponent</title>
<polygon fill="#ffffb3" stroke="black" points="419.48,-84.8 284.52,-84.8 284.52,-48.8 419.48,-48.8 419.48,-84.8"/>
<text text-anchor="middle" x="352" y="-62.6" font-family="Times,serif" font-size="14.00">PageTitleComponent</text>
</g>
<!-- PageTitleComponent&#45;&gt;SharedModule -->
<g id="edge3" class="edge">
<title>PageTitleComponent&#45;&gt;SharedModule</title>
<path fill="none" stroke="black" d="M352,-84.83C352,-105.57 352,-136.8 352,-136.8 352,-136.8 1373.74,-136.8 1373.74,-136.8"/>
<polygon fill="black" stroke="black" points="1373.74,-140.3 1383.74,-136.8 1373.74,-133.3 1373.74,-140.3"/>
</g>
<!-- InputComponent -->
<g id="node3" class="node">
<title>InputComponent</title>
<polygon fill="#ffffb3" stroke="black" points="266.38,-84.8 155.62,-84.8 155.62,-48.8 266.38,-48.8 266.38,-84.8"/>
<text text-anchor="middle" x="211" y="-62.6" font-family="Times,serif" font-size="14.00">InputComponent</text>
</g>
<!-- InputComponent&#45;&gt;SharedModule -->
<g id="edge4" class="edge">
<title>InputComponent&#45;&gt;SharedModule</title>
<path fill="none" stroke="black" d="M211,-84.97C211,-106.3 211,-138.8 211,-138.8 211,-138.8 1373.58,-138.8 1373.58,-138.8"/>
<polygon fill="black" stroke="black" points="1373.58,-142.3 1383.58,-138.8 1373.58,-135.3 1373.58,-142.3"/>
</g>
<!-- TableComponent -->
<g id="node4" class="node">
<title>TableComponent</title>
<polygon fill="#ffffb3" stroke="black" points="137.7,-84.8 24.3,-84.8 24.3,-48.8 137.7,-48.8 137.7,-84.8"/>
<text text-anchor="middle" x="81" y="-62.6" font-family="Times,serif" font-size="14.00">TableComponent</text>
</g>
<!-- TableComponent&#45;&gt;SharedModule -->
<g id="edge5" class="edge">
<title>TableComponent&#45;&gt;SharedModule</title>
<path fill="none" stroke="black" d="M81,-84.96C81,-107.15 81,-141.8 81,-141.8 81,-141.8 1373.68,-141.8 1373.68,-141.8"/>
<polygon fill="black" stroke="black" points="1373.68,-145.3 1383.68,-141.8 1373.68,-138.3 1373.68,-145.3"/>
</g>
<!-- MatCardModule  -->
<g id="node23" class="node">
<title>MatCardModule </title>
<polygon fill="#fb8072" stroke="black" points="1758.31,-214.8 1645.69,-214.8 1645.69,-178.8 1758.31,-178.8 1758.31,-214.8"/>
<text text-anchor="middle" x="1702" y="-192.6" font-family="Times,serif" font-size="14.00">MatCardModule </text>
</g>
<!-- SharedModule&#45;&gt;MatCardModule  -->
<g id="edge23" class="edge">
<title>SharedModule&#45;&gt;MatCardModule </title>
<path fill="none" stroke="black" stroke-dasharray="5,2" d="M1482.34,-144.8C1560,-144.8 1702,-144.8 1702,-144.8 1702,-144.8 1702,-168.61 1702,-168.61"/>
<polygon fill="black" stroke="black" points="1698.5,-168.61 1702,-178.61 1705.5,-168.61 1698.5,-168.61"/>
</g>
<!-- InputComponent  -->
<g id="node24" class="node">
<title>InputComponent </title>
<polygon fill="#fb8072" stroke="black" points="1627.38,-214.8 1512.62,-214.8 1512.62,-178.8 1627.38,-178.8 1627.38,-214.8"/>
<text text-anchor="middle" x="1570" y="-192.6" font-family="Times,serif" font-size="14.00">InputComponent </text>
</g>
<!-- SharedModule&#45;&gt;InputComponent  -->
<g id="edge24" class="edge">
<title>SharedModule&#45;&gt;InputComponent </title>
<path fill="none" stroke="black" stroke-dasharray="5,2" d="M1482.48,-147.8C1512.22,-147.8 1544.34,-147.8 1544.34,-147.8 1544.34,-147.8 1544.34,-168.55 1544.34,-168.55"/>
<polygon fill="black" stroke="black" points="1540.84,-168.55 1544.34,-178.55 1547.84,-168.55 1540.84,-168.55"/>
</g>
<!-- ButtonComponent  -->
<g id="node25" class="node">
<title>ButtonComponent </title>
<polygon fill="#fb8072" stroke="black" points="1494.45,-214.8 1371.55,-214.8 1371.55,-178.8 1494.45,-178.8 1494.45,-214.8"/>
<text text-anchor="middle" x="1433" y="-192.6" font-family="Times,serif" font-size="14.00">ButtonComponent </text>
</g>
<!-- SharedModule&#45;&gt;ButtonComponent  -->
<g id="edge25" class="edge">
<title>SharedModule&#45;&gt;ButtonComponent </title>
<path fill="none" stroke="black" stroke-dasharray="5,2" d="M1433,-149.91C1433,-149.91 1433,-168.79 1433,-168.79"/>
<polygon fill="black" stroke="black" points="1429.5,-168.79 1433,-178.79 1436.5,-168.79 1429.5,-168.79"/>
</g>
<!-- PageTitleComponent  -->
<g id="node26" class="node">
<title>PageTitleComponent </title>
<polygon fill="#fb8072" stroke="black" points="1353.48,-214.8 1214.52,-214.8 1214.52,-178.8 1353.48,-178.8 1353.48,-214.8"/>
<text text-anchor="middle" x="1284" y="-192.6" font-family="Times,serif" font-size="14.00">PageTitleComponent </text>
</g>
<!-- SharedModule&#45;&gt;PageTitleComponent  -->
<g id="edge26" class="edge">
<title>SharedModule&#45;&gt;PageTitleComponent </title>
<path fill="none" stroke="black" stroke-dasharray="5,2" d="M1383.75,-147.8C1354.99,-147.8 1324.32,-147.8 1324.32,-147.8 1324.32,-147.8 1324.32,-168.55 1324.32,-168.55"/>
<polygon fill="black" stroke="black" points="1320.82,-168.55 1324.32,-178.55 1327.82,-168.55 1320.82,-168.55"/>
</g>
<!-- TableComponent  -->
<g id="node27" class="node">
<title>TableComponent </title>
<polygon fill="#fb8072" stroke="black" points="1196.21,-214.8 1079.79,-214.8 1079.79,-178.8 1196.21,-178.8 1196.21,-214.8"/>
<text text-anchor="middle" x="1138" y="-192.6" font-family="Times,serif" font-size="14.00">TableComponent </text>
</g>
<!-- SharedModule&#45;&gt;TableComponent  -->
<g id="edge27" class="edge">
<title>SharedModule&#45;&gt;TableComponent </title>
<path fill="none" stroke="black" stroke-dasharray="5,2" d="M1383.57,-144.8C1307.03,-144.8 1168.55,-144.8 1168.55,-144.8 1168.55,-144.8 1168.55,-168.61 1168.55,-168.61"/>
<polygon fill="black" stroke="black" points="1165.05,-168.61 1168.55,-178.61 1172.05,-168.61 1165.05,-168.61"/>
</g>
<!-- CommonModule -->
<g id="node6" class="node">
<title>CommonModule</title>
<polygon fill="#8dd3c7" stroke="black" points="2957.67,-84.8 2954.67,-88.8 2933.67,-88.8 2930.67,-84.8 2846.33,-84.8 2846.33,-48.8 2957.67,-48.8 2957.67,-84.8"/>
<text text-anchor="middle" x="2902" y="-62.6" font-family="Times,serif" font-size="14.00">CommonModule</text>
</g>
<!-- CommonModule&#45;&gt;SharedModule -->
<g id="edge6" class="edge">
<title>CommonModule&#45;&gt;SharedModule</title>
<path fill="none" stroke="black" d="M2902,-84.96C2902,-107.15 2902,-141.8 2902,-141.8 2902,-141.8 1492.3,-141.8 1492.3,-141.8"/>
<polygon fill="black" stroke="black" points="1492.3,-138.3 1482.3,-141.8 1492.3,-145.3 1492.3,-138.3"/>
</g>
<!-- FormsModule -->
<g id="node7" class="node">
<title>FormsModule</title>
<polygon fill="#8dd3c7" stroke="black" points="2828.83,-84.8 2825.83,-88.8 2804.83,-88.8 2801.83,-84.8 2733.17,-84.8 2733.17,-48.8 2828.83,-48.8 2828.83,-84.8"/>
<text text-anchor="middle" x="2781" y="-62.6" font-family="Times,serif" font-size="14.00">FormsModule</text>
</g>
<!-- FormsModule&#45;&gt;SharedModule -->
<g id="edge7" class="edge">
<title>FormsModule&#45;&gt;SharedModule</title>
<path fill="none" stroke="black" d="M2781,-84.97C2781,-106.3 2781,-138.8 2781,-138.8 2781,-138.8 1492.57,-138.8 1492.57,-138.8"/>
<polygon fill="black" stroke="black" points="1492.57,-135.3 1482.57,-138.8 1492.57,-142.3 1492.57,-135.3"/>
</g>
<!-- ReactiveFormsModule -->
<g id="node8" class="node">
<title>ReactiveFormsModule</title>
<polygon fill="#8dd3c7" stroke="black" points="2715.3,-84.8 2712.3,-88.8 2691.3,-88.8 2688.3,-84.8 2570.7,-84.8 2570.7,-48.8 2715.3,-48.8 2715.3,-84.8"/>
<text text-anchor="middle" x="2643" y="-62.6" font-family="Times,serif" font-size="14.00">ReactiveFormsModule</text>
</g>
<!-- ReactiveFormsModule&#45;&gt;SharedModule -->
<g id="edge8" class="edge">
<title>ReactiveFormsModule&#45;&gt;SharedModule</title>
<path fill="none" stroke="black" d="M2643,-84.83C2643,-105.57 2643,-136.8 2643,-136.8 2643,-136.8 1492.31,-136.8 1492.31,-136.8"/>
<polygon fill="black" stroke="black" points="1492.31,-133.3 1482.31,-136.8 1492.31,-140.3 1492.31,-133.3"/>
</g>
<!-- MatButtonModule -->
<g id="node9" class="node">
<title>MatButtonModule</title>
<polygon fill="#8dd3c7" stroke="black" points="2553.22,-84.8 2550.22,-88.8 2529.22,-88.8 2526.22,-84.8 2432.78,-84.8 2432.78,-48.8 2553.22,-48.8 2553.22,-84.8"/>
<text text-anchor="middle" x="2493" y="-62.6" font-family="Times,serif" font-size="14.00">MatButtonModule</text>
</g>
<!-- MatButtonModule&#45;&gt;SharedModule -->
<g id="edge9" class="edge">
<title>MatButtonModule&#45;&gt;SharedModule</title>
<path fill="none" stroke="black" d="M2493,-85.11C2493,-104.95 2493,-133.8 2493,-133.8 2493,-133.8 1492.35,-133.8 1492.35,-133.8"/>
<polygon fill="black" stroke="black" points="1492.35,-130.3 1482.35,-133.8 1492.35,-137.3 1492.35,-130.3"/>
</g>
<!-- MatCardModule -->
<g id="node10" class="node">
<title>MatCardModule</title>
<polygon fill="#8dd3c7" stroke="black" points="2414.81,-84.8 2411.81,-88.8 2390.81,-88.8 2387.81,-84.8 2305.19,-84.8 2305.19,-48.8 2414.81,-48.8 2414.81,-84.8"/>
<text text-anchor="middle" x="2360" y="-62.6" font-family="Times,serif" font-size="14.00">MatCardModule</text>
</g>
<!-- MatCardModule&#45;&gt;SharedModule -->
<g id="edge10" class="edge">
<title>MatCardModule&#45;&gt;SharedModule</title>
<path fill="none" stroke="black" d="M2360,-84.97C2360,-103.89 2360,-130.8 2360,-130.8 2360,-130.8 1492.51,-130.8 1492.51,-130.8"/>
<polygon fill="black" stroke="black" points="1492.51,-127.3 1482.51,-130.8 1492.51,-134.3 1492.51,-127.3"/>
</g>
<!-- MatDividerModule -->
<g id="node11" class="node">
<title>MatDividerModule</title>
<polygon fill="#8dd3c7" stroke="black" points="2287.36,-84.8 2284.36,-88.8 2263.36,-88.8 2260.36,-84.8 2162.64,-84.8 2162.64,-48.8 2287.36,-48.8 2287.36,-84.8"/>
<text text-anchor="middle" x="2225" y="-62.6" font-family="Times,serif" font-size="14.00">MatDividerModule</text>
</g>
<!-- MatDividerModule&#45;&gt;SharedModule -->
<g id="edge11" class="edge">
<title>MatDividerModule&#45;&gt;SharedModule</title>
<path fill="none" stroke="black" d="M2225,-85.1C2225,-103.07 2225,-127.8 2225,-127.8 2225,-127.8 1492.24,-127.8 1492.24,-127.8"/>
<polygon fill="black" stroke="black" points="1492.24,-124.3 1482.24,-127.8 1492.24,-131.3 1492.24,-124.3"/>
</g>
<!-- MatIconModule -->
<g id="node12" class="node">
<title>MatIconModule</title>
<polygon fill="#8dd3c7" stroke="black" points="2144.47,-84.8 2141.47,-88.8 2120.47,-88.8 2117.47,-84.8 2037.53,-84.8 2037.53,-48.8 2144.47,-48.8 2144.47,-84.8"/>
<text text-anchor="middle" x="2091" y="-62.6" font-family="Times,serif" font-size="14.00">MatIconModule</text>
</g>
<!-- MatIconModule&#45;&gt;SharedModule -->
<g id="edge12" class="edge">
<title>MatIconModule&#45;&gt;SharedModule</title>
<path fill="none" stroke="black" d="M2091,-84.82C2091,-102.17 2091,-125.8 2091,-125.8 2091,-125.8 1492.46,-125.8 1492.46,-125.8"/>
<polygon fill="black" stroke="black" points="1492.46,-122.3 1482.46,-125.8 1492.46,-129.3 1492.46,-122.3"/>
</g>
<!-- MatInputModule -->
<g id="node13" class="node">
<title>MatInputModule</title>
<polygon fill="#8dd3c7" stroke="black" points="2019.65,-84.8 2016.65,-88.8 1995.65,-88.8 1992.65,-84.8 1908.35,-84.8 1908.35,-48.8 2019.65,-48.8 2019.65,-84.8"/>
<text text-anchor="middle" x="1964" y="-62.6" font-family="Times,serif" font-size="14.00">MatInputModule</text>
</g>
<!-- MatInputModule&#45;&gt;SharedModule -->
<g id="edge13" class="edge">
<title>MatInputModule&#45;&gt;SharedModule</title>
<path fill="none" stroke="black" d="M1964,-84.83C1964,-101.2 1964,-122.8 1964,-122.8 1964,-122.8 1492.48,-122.8 1492.48,-122.8"/>
<polygon fill="black" stroke="black" points="1492.48,-119.3 1482.48,-122.8 1492.48,-126.3 1492.48,-119.3"/>
</g>
<!-- MatListModule -->
<g id="node14" class="node">
<title>MatListModule</title>
<polygon fill="#8dd3c7" stroke="black" points="1889.88,-84.8 1886.88,-88.8 1865.88,-88.8 1862.88,-84.8 1786.12,-84.8 1786.12,-48.8 1889.88,-48.8 1889.88,-84.8"/>
<text text-anchor="middle" x="1838" y="-62.6" font-family="Times,serif" font-size="14.00">MatListModule</text>
</g>
<!-- MatListModule&#45;&gt;SharedModule -->
<g id="edge14" class="edge">
<title>MatListModule&#45;&gt;SharedModule</title>
<path fill="none" stroke="black" d="M1838,-85.04C1838,-100.37 1838,-119.8 1838,-119.8 1838,-119.8 1492.26,-119.8 1492.26,-119.8"/>
<polygon fill="black" stroke="black" points="1492.26,-116.3 1482.26,-119.8 1492.26,-123.3 1492.26,-116.3"/>
</g>
<!-- MatProgressSpinnerModule -->
<g id="node15" class="node">
<title>MatProgressSpinnerModule</title>
<polygon fill="#8dd3c7" stroke="black" points="1767.86,-84.8 1764.86,-88.8 1743.86,-88.8 1740.86,-84.8 1594.14,-84.8 1594.14,-48.8 1767.86,-48.8 1767.86,-84.8"/>
<text text-anchor="middle" x="1681" y="-62.6" font-family="Times,serif" font-size="14.00">MatProgressSpinnerModule</text>
</g>
<!-- MatProgressSpinnerModule&#45;&gt;SharedModule -->
<g id="edge15" class="edge">
<title>MatProgressSpinnerModule&#45;&gt;SharedModule</title>
<path fill="none" stroke="black" d="M1610.63,-84.85C1610.63,-99.17 1610.63,-116.8 1610.63,-116.8 1610.63,-116.8 1492.48,-116.8 1492.48,-116.8"/>
<polygon fill="black" stroke="black" points="1492.48,-113.3 1482.48,-116.8 1492.48,-120.3 1492.48,-113.3"/>
</g>
<!-- MatPaginatorModule -->
<g id="node16" class="node">
<title>MatPaginatorModule</title>
<polygon fill="#8dd3c7" stroke="black" points="1575.75,-84.8 1572.75,-88.8 1551.75,-88.8 1548.75,-84.8 1440.25,-84.8 1440.25,-48.8 1575.75,-48.8 1575.75,-84.8"/>
<text text-anchor="middle" x="1508" y="-62.6" font-family="Times,serif" font-size="14.00">MatPaginatorModule</text>
</g>
<!-- MatPaginatorModule&#45;&gt;SharedModule -->
<g id="edge16" class="edge">
<title>MatPaginatorModule&#45;&gt;SharedModule</title>
<path fill="none" stroke="black" d="M1461.17,-84.91C1461.17,-84.91 1461.17,-103.79 1461.17,-103.79"/>
<polygon fill="black" stroke="black" points="1457.67,-103.79 1461.17,-113.79 1464.67,-103.79 1457.67,-103.79"/>
</g>
<!-- MatSidenavModule -->
<g id="node17" class="node">
<title>MatSidenavModule</title>
<polygon fill="#8dd3c7" stroke="black" points="1422.7,-84.8 1419.7,-88.8 1398.7,-88.8 1395.7,-84.8 1295.3,-84.8 1295.3,-48.8 1422.7,-48.8 1422.7,-84.8"/>
<text text-anchor="middle" x="1359" y="-62.6" font-family="Times,serif" font-size="14.00">MatSidenavModule</text>
</g>
<!-- MatSidenavModule&#45;&gt;SharedModule -->
<g id="edge17" class="edge">
<title>MatSidenavModule&#45;&gt;SharedModule</title>
<path fill="none" stroke="black" d="M1403.19,-84.91C1403.19,-84.91 1403.19,-103.79 1403.19,-103.79"/>
<polygon fill="black" stroke="black" points="1399.7,-103.79 1403.19,-113.79 1406.7,-103.79 1399.7,-103.79"/>
</g>
<!-- MatSnackBarModule -->
<g id="node18" class="node">
<title>MatSnackBarModule</title>
<polygon fill="#8dd3c7" stroke="black" points="1277.02,-84.8 1274.02,-88.8 1253.02,-88.8 1250.02,-84.8 1140.98,-84.8 1140.98,-48.8 1277.02,-48.8 1277.02,-84.8"/>
<text text-anchor="middle" x="1209" y="-62.6" font-family="Times,serif" font-size="14.00">MatSnackBarModule</text>
</g>
<!-- MatSnackBarModule&#45;&gt;SharedModule -->
<g id="edge18" class="edge">
<title>MatSnackBarModule&#45;&gt;SharedModule</title>
<path fill="none" stroke="black" d="M1246.01,-84.85C1246.01,-99.17 1246.01,-116.8 1246.01,-116.8 1246.01,-116.8 1373.38,-116.8 1373.38,-116.8"/>
<polygon fill="black" stroke="black" points="1373.38,-120.3 1383.38,-116.8 1373.38,-113.3 1373.38,-120.3"/>
</g>
<!-- MatSortModule -->
<g id="node19" class="node">
<title>MatSortModule</title>
<polygon fill="#8dd3c7" stroke="black" points="1122.93,-84.8 1119.93,-88.8 1098.93,-88.8 1095.93,-84.8 1017.07,-84.8 1017.07,-48.8 1122.93,-48.8 1122.93,-84.8"/>
<text text-anchor="middle" x="1070" y="-62.6" font-family="Times,serif" font-size="14.00">MatSortModule</text>
</g>
<!-- MatSortModule&#45;&gt;SharedModule -->
<g id="edge19" class="edge">
<title>MatSortModule&#45;&gt;SharedModule</title>
<path fill="none" stroke="black" d="M1101.18,-85.04C1101.18,-100.37 1101.18,-119.8 1101.18,-119.8 1101.18,-119.8 1373.68,-119.8 1373.68,-119.8"/>
<polygon fill="black" stroke="black" points="1373.68,-123.3 1383.68,-119.8 1373.68,-116.3 1373.68,-123.3"/>
</g>
<!-- MatTableModule -->
<g id="node20" class="node">
<title>MatTableModule</title>
<polygon fill="#8dd3c7" stroke="black" points="998.97,-84.8 995.97,-88.8 974.97,-88.8 971.97,-84.8 885.03,-84.8 885.03,-48.8 998.97,-48.8 998.97,-84.8"/>
<text text-anchor="middle" x="942" y="-62.6" font-family="Times,serif" font-size="14.00">MatTableModule</text>
</g>
<!-- MatTableModule&#45;&gt;SharedModule -->
<g id="edge20" class="edge">
<title>MatTableModule&#45;&gt;SharedModule</title>
<path fill="none" stroke="black" d="M942,-84.83C942,-101.2 942,-122.8 942,-122.8 942,-122.8 1373.67,-122.8 1373.67,-122.8"/>
<polygon fill="black" stroke="black" points="1373.67,-126.3 1383.67,-122.8 1373.67,-119.3 1373.67,-126.3"/>
</g>
<!-- MatToolbarModule -->
<g id="node21" class="node">
<title>MatToolbarModule</title>
<polygon fill="#8dd3c7" stroke="black" points="867.42,-84.8 864.42,-88.8 843.42,-88.8 840.42,-84.8 740.58,-84.8 740.58,-48.8 867.42,-48.8 867.42,-84.8"/>
<text text-anchor="middle" x="804" y="-62.6" font-family="Times,serif" font-size="14.00">MatToolbarModule</text>
</g>
<!-- MatToolbarModule&#45;&gt;SharedModule -->
<g id="edge21" class="edge">
<title>MatToolbarModule&#45;&gt;SharedModule</title>
<path fill="none" stroke="black" d="M804,-84.82C804,-102.17 804,-125.8 804,-125.8 804,-125.8 1373.64,-125.8 1373.64,-125.8"/>
<polygon fill="black" stroke="black" points="1373.64,-129.3 1383.64,-125.8 1373.64,-122.3 1373.64,-129.3"/>
</g>
<!-- MatFormFieldModule -->
<g id="node22" class="node">
<title>MatFormFieldModule</title>
<polygon fill="#8dd3c7" stroke="black" points="722.71,-84.8 719.71,-88.8 698.71,-88.8 695.71,-84.8 581.29,-84.8 581.29,-48.8 722.71,-48.8 722.71,-84.8"/>
<text text-anchor="middle" x="652" y="-62.6" font-family="Times,serif" font-size="14.00">MatFormFieldModule</text>
</g>
<!-- MatFormFieldModule&#45;&gt;SharedModule -->
<g id="edge22" class="edge">
<title>MatFormFieldModule&#45;&gt;SharedModule</title>
<path fill="none" stroke="black" d="M652,-85.1C652,-103.07 652,-127.8 652,-127.8 652,-127.8 1373.55,-127.8 1373.55,-127.8"/>
<polygon fill="black" stroke="black" points="1373.55,-131.3 1383.55,-127.8 1373.55,-124.3 1373.55,-131.3"/>
</g>
</g>
</svg>
